<?xml version="1.0" encoding="UTF-8" standalone="no"?>
<!-- Created with Inkscape (http://www.inkscape.org/) -->

<svg
   width="41.956703mm"
   height="57.217236mm"
   viewBox="0 0 41.956703 57.217236"
   version="1.1"
   id="svg1"
   xml:space="preserve"
   xmlns="http://www.w3.org/2000/svg"
   xmlns:svg="http://www.w3.org/2000/svg"><defs
     id="defs1" /><g
     id="layer1"
     transform="translate(-80.726246,-74.126701)"><g
       id="g1"
       transform="matrix(0.26458333,0,0,0.26458333,-24.090198,-37.052904)"
       style="display:none"><g
         id="Layer_2"
         transform="matrix(1.2174924,0,0,1.2174824,-82.647949,-55.375543)">
	<g
   id="g16">
		
			
		
		<g
   id="g15">
			<g
   id="g8">
				<path
   style="fill:#8bc53f"
   d="m 521.577,259.93 c -22.781,-24.347 -59.674,3.511 -59.674,3.511 -21.889,-18.037 -59.184,12.881 -59.184,12.881 93.767,15.781 2.449,95.904 2.449,95.904 103.881,-15.892 51.546,-94.823 116.409,-112.296 z"
   id="path7" />
				<path
   style="fill:#8bc53f"
   d="m 474.277,235.833 c -0.032,6.905 -12.6,20.444 -12.6,20.444 0,0 -12.431,-13.665 -12.397,-20.571 0.036,-6.899 5.66,-12.469 12.56,-12.432 6.907,0.034 12.474,5.66 12.437,12.559 z"
   id="path8" />
			</g>
			<g
   id="g10">
				<path
   style="fill:#26a9e0"
   d="m 487.523,469.022 c 24.342,-22.781 -3.517,-59.674 -3.517,-59.674 18.036,-21.884 -12.876,-59.185 -12.876,-59.185 -15.785,93.766 -95.905,2.457 -95.905,2.457 15.892,103.88 94.819,51.543 112.298,116.402 z"
   id="path9" />
				<path
   style="fill:#26a9e0"
   d="m 511.617,421.727 c -6.905,-0.034 -20.447,-12.602 -20.447,-12.602 0,0 13.671,-12.429 20.571,-12.401 6.903,0.044 12.468,5.665 12.433,12.568 -0.031,6.898 -5.656,12.47 -12.557,12.435 z"
   id="path10" />
			</g>
			<g
   id="g12">
				<path
   style="fill:#652d90"
   d="m 278.426,434.969 c 22.781,24.346 59.672,-3.511 59.672,-3.511 21.887,18.035 59.186,-12.881 59.186,-12.881 -93.767,-15.784 -2.455,-95.907 -2.455,-95.907 -103.883,15.896 -51.544,94.827 -116.403,112.299 z"
   id="path11" />
				<path
   style="fill:#652d90"
   d="m 325.726,459.06 c 0.035,-6.903 12.604,-20.441 12.604,-20.441 0,0 12.423,13.667 12.392,20.57 -0.041,6.901 -5.663,12.472 -12.563,12.435 -6.9,-0.035 -12.471,-5.663 -12.433,-12.564 z"
   id="path12" />
			</g>
			<g
   id="g14">
				<path
   style="fill:#f6921e"
   d="m 312.482,225.874 c -24.347,22.783 3.515,59.673 3.515,59.673 -18.04,21.886 12.874,59.185 12.874,59.185 15.781,-93.767 95.905,-2.456 95.905,-2.456 -15.895,-103.88 -94.82,-51.54 -112.294,-116.402 z"
   id="path13" />
				<path
   style="fill:#f6921e"
   d="m 288.388,273.171 c 6.902,0.036 20.444,12.601 20.444,12.601 0,0 -13.671,12.438 -20.573,12.393 -6.901,-0.037 -12.468,-5.658 -12.433,-12.564 0.037,-6.896 5.657,-12.464 12.562,-12.43 z"
   id="path14" />
			</g>
		</g>
	</g>
</g></g><g
       id="g2"
       transform="matrix(0.03636364,0,0,0.03636364,61.704588,62.735314)"><g
         id="Background">
	
</g><g
         id="Objects">
	<g
   id="g11">
		<radialGradient
   id="SVGID_1_-0"
   cx="984.38263"
   cy="561.15588"
   r="515.02899"
   gradientUnits="userSpaceOnUse">
			<stop
   offset="0"
   style="stop-color:#8CD3FF"
   id="stop1-9" />
			<stop
   offset="0.0129"
   style="stop-color:#8AD1FE"
   id="stop2-4" />
			<stop
   offset="0.3235"
   style="stop-color:#69A6EB"
   id="stop3" />
			<stop
   offset="0.6025"
   style="stop-color:#5186DD"
   id="stop4" />
			<stop
   offset="0.8375"
   style="stop-color:#4273D4"
   id="stop5" />
			<stop
   offset="1"
   style="stop-color:#3D6CD1"
   id="stop6" />
		</radialGradient>
		<circle
   style="fill:url(#SVGID_1_-0)"
   cx="1100"
   cy="641.30902"
   r="328.04599"
   id="circle6" />
		
			<radialGradient
   id="SVGID_00000086680138554738929890000012073436670901172620_"
   cx="992.35742"
   cy="1348.7684"
   r="515.13702"
   gradientTransform="matrix(0.6341,0.7732,-1.1252,0.9228,1880.7711,-663.2209)"
   gradientUnits="userSpaceOnUse">
			<stop
   offset="0"
   style="stop-color:#8CD3FF"
   id="stop7" />
			<stop
   offset="0.1168"
   style="stop-color:#80C4F8"
   id="stop8" />
			<stop
   offset="0.518"
   style="stop-color:#5C94E3"
   id="stop9" />
			<stop
   offset="0.8253"
   style="stop-color:#4577D6"
   id="stop10" />
			<stop
   offset="1"
   style="stop-color:#3D6CD1"
   id="stop11" />
		</radialGradient>
		<path
   style="fill:url(#SVGID_00000086680138554738929890000012073436670901172620_)"
   d="m 1611.54,1766.542 c -138.91,94.62 -317.16,120.195 -511.54,120.195 -194.38,0 -372.63,-25.575 -511.54,-120.195 -45.13,-30.74 -69.78,-83.62 -64.71,-137.99 35.54,-381.08 324.37,-560.97 576.25,-560.97 251.88,0 540.71,179.89 576.25,560.97 5.07,54.37 -19.58,107.25 -64.71,137.99 z"
   id="path11-8" />
	</g>
</g></g></g></svg>
