<?xml version="1.0" encoding="UTF-8" standalone="no"?>
<!-- Created with Inkscape (http://www.inkscape.org/) -->

<svg
   width="65.708824mm"
   height="65.709373mm"
   viewBox="0 0 65.708824 65.709373"
   version="1.1"
   id="svg1"
   xml:space="preserve"
   xmlns="http://www.w3.org/2000/svg"
   xmlns:svg="http://www.w3.org/2000/svg"><defs
     id="defs1" /><g
     id="layer1"
     transform="translate(-63.834267,-92.368775)"><g
       id="g1"
       transform="matrix(0.26458333,0,0,0.26458333,-3.4756493,15.514195)"><g
         id="Layer_1"
         style="display:none">
	<radialGradient
   id="SVGID_1_"
   cx="400"
   cy="400"
   r="543.11603"
   gradientUnits="userSpaceOnUse"
   gradientTransform="scale(0.58486843,1)">
		<stop
   offset="0"
   style="stop-color:#FBFBFB"
   id="stop1" />
		<stop
   offset="1"
   style="stop-color:#D5DDD9"
   id="stop2" />
	</radialGradient>
	
</g><g
         id="Layer_2"
         transform="translate(-21.426146,67.200183)">
	<g
   id="g16">
		
			
		
		<g
   id="g15">
			<g
   id="g8">
				<path
   style="fill:#8bc53f"
   d="m 521.577,259.93 c -22.781,-24.347 -59.674,3.511 -59.674,3.511 -21.889,-18.037 -59.184,12.881 -59.184,12.881 93.767,15.781 2.449,95.904 2.449,95.904 103.881,-15.892 51.546,-94.823 116.409,-112.296 z"
   id="path7" />
				<path
   style="fill:#8bc53f"
   d="m 474.277,235.833 c -0.032,6.905 -12.6,20.444 -12.6,20.444 0,0 -12.431,-13.665 -12.397,-20.571 0.036,-6.899 5.66,-12.469 12.56,-12.432 6.907,0.034 12.474,5.66 12.437,12.559 z"
   id="path8" />
			</g>
			<g
   id="g10">
				<path
   style="fill:#26a9e0"
   d="m 487.523,469.022 c 24.342,-22.781 -3.517,-59.674 -3.517,-59.674 18.036,-21.884 -12.876,-59.185 -12.876,-59.185 -15.785,93.766 -95.905,2.457 -95.905,2.457 15.892,103.88 94.819,51.543 112.298,116.402 z"
   id="path9" />
				<path
   style="fill:#26a9e0"
   d="m 511.617,421.727 c -6.905,-0.034 -20.447,-12.602 -20.447,-12.602 0,0 13.671,-12.429 20.571,-12.401 6.903,0.044 12.468,5.665 12.433,12.568 -0.031,6.898 -5.656,12.47 -12.557,12.435 z"
   id="path10" />
			</g>
			<g
   id="g12">
				<path
   style="fill:#652d90"
   d="m 278.426,434.969 c 22.781,24.346 59.672,-3.511 59.672,-3.511 21.887,18.035 59.186,-12.881 59.186,-12.881 -93.767,-15.784 -2.455,-95.907 -2.455,-95.907 -103.883,15.896 -51.544,94.827 -116.403,112.299 z"
   id="path11" />
				<path
   style="fill:#652d90"
   d="m 325.726,459.06 c 0.035,-6.903 12.604,-20.441 12.604,-20.441 0,0 12.423,13.667 12.392,20.57 -0.041,6.901 -5.663,12.472 -12.563,12.435 -6.9,-0.035 -12.471,-5.663 -12.433,-12.564 z"
   id="path12" />
			</g>
			<g
   id="g14">
				<path
   style="fill:#f6921e"
   d="m 312.482,225.874 c -24.347,22.783 3.515,59.673 3.515,59.673 -18.04,21.886 12.874,59.185 12.874,59.185 15.781,-93.767 95.905,-2.456 95.905,-2.456 -15.895,-103.88 -94.82,-51.54 -112.294,-116.402 z"
   id="path13" />
				<path
   style="fill:#f6921e"
   d="m 288.388,273.171 c 6.902,0.036 20.444,12.601 20.444,12.601 0,0 -13.671,12.438 -20.573,12.393 -6.901,-0.037 -12.468,-5.658 -12.433,-12.564 0.037,-6.896 5.657,-12.464 12.562,-12.43 z"
   id="path14" />
			</g>
		</g>
	</g>
</g></g></g></svg>
