<?xml version="1.0" encoding="UTF-8" standalone="no"?>
<!-- Created with Inkscape (http://www.inkscape.org/) -->

<svg
   width="120.00001mm"
   height="50.000004mm"
   viewBox="0 0 453.54334 188.9764"
   version="1.1"
   id="svg1"
   xmlns:xlink="http://www.w3.org/1999/xlink"
   xmlns="http://www.w3.org/2000/svg"
   xmlns:svg="http://www.w3.org/2000/svg">
  <defs
     id="defs1">
    <pattern
       xlink:href="#RedButton"
       preserveAspectRatio="xMidYMid"
       id="pattern50"
       patternTransform="matrix(0.31247026,0,0,0.31247025,16.695481,73.051257)" />
    <linearGradient
       id="linearGradient118859">
      <stop
   style="stop-color:#fc0000;stop-opacity:1;"
   offset="0"
   id="stop118855" />

      <stop
   style="stop-color:#000000;stop-opacity:1;"
   offset="1"
   id="stop118857" />

    </linearGradient>
    <linearGradient
       xlink:href="#linearGradient118859"
       id="linearGradient118861"
       x1="20"
       y1="50"
       x2="80"
       y2="50"
       gradientUnits="userSpaceOnUse"
       gradientTransform="matrix(1.1666667,0,0,1.1666667,12.377344,-58.333337)" />
    <linearGradient
       id="linearGradient119593">
      <stop
   style="stop-color:#000000;stop-opacity:1;"
   offset="0"
   id="stop119589" />

      <stop
   style="stop-color:#f70000;stop-opacity:1;"
   offset="1"
   id="stop119591" />

    </linearGradient>
    <linearGradient
       xlink:href="#linearGradient119593"
       id="linearGradient119595"
       x1="0"
       y1="0"
       x2="100"
       y2="100"
       gradientUnits="userSpaceOnUse" />
    <pattern
       patternUnits="userSpaceOnUse"
       width="100"
       height="100"
       id="RedButton"
       style="fill:none"
       preserveAspectRatio="xMidYMid"
       patternTransform="scale(0.5,0.5)">
      <g
   id="g119599">
        <rect
   style="opacity:1;fill:url(#linearGradient119595);fill-opacity:1;stroke:none;stroke-width:1;stroke-dasharray:none"
   id="rect118102"
   width="100"
   height="100"
   x="0"
   y="0" />

        <circle
   style="opacity:1;fill:url(#linearGradient118861);fill-opacity:1;stroke:none;stroke-width:1;stroke-dasharray:none"
   id="path118104"
   cx="70.71067"
   cy="-6.3879543e-07"
   r="35.000004"
   transform="rotate(45)" />

      </g>

    </pattern>
    <pattern
       xlink:href="#TableCloth"
       preserveAspectRatio="xMidYMid"
       id="pattern27"
       patternTransform="translate(-27.545091,-1.3772545)"
       x="0"
       y="0" />
    <pattern
       patternUnits="userSpaceOnUse"
       preserveAspectRatio="xMidYMid"
       width="50"
       height="50"
       id="TableCloth"
       style="fill:none">
      <g
   id="g152475">
        <rect
   style="fill:none;fill-opacity:1;stroke:none;stroke-width:1;stroke-dasharray:none"
   id="rect152346"
   width="50"
   height="50"
   x="0"
   y="0" />

        <path
   id="path152348"
   style="fill:#afecda;fill-opacity:1;stroke:none;stroke-width:0.999995;stroke-dasharray:none"
   d="m 0.5,25.5 v 22 l 2,2 h 22 v -19 l -5,-5 z" />

        <path
   id="path152350"
   style="fill:#a8cbfe;fill-opacity:1;stroke:none;stroke-width:0.999995;stroke-dasharray:none"
   d="m 30.5,25.5 -5,5 v 19 h 22 l 2,-2 v -22 z" />

        <path
   id="path152352"
   style="fill:#cbbbe9;fill-opacity:1;stroke:none;stroke-width:0.999995;stroke-dasharray:none"
   d="m 25.5,0.5 v 19 l 5,5 h 19 v -22 l -2,-2 z" />

        <path
   id="path152354"
   style="fill:#f0b6d3;fill-opacity:1;stroke:none;stroke-width:0.999995;stroke-dasharray:none"
   d="m 2.5,0.5 -2,2 v 22 h 19 l 5,-5 v -19 z" />

        <path
   id="path152356"
   style="fill:#ffe9a6;stroke-width:1"
   d="m 17.5,37.5 c 0,2.761423 -2.238577,5 -5,5 -2.7614235,0 -5,-2.238577 -5,-5 0,-2.761424 2.2385765,-5 5,-5 2.761423,0 5,2.238576 5,5 z m 2.5,0 C 20,33.345004 16.654996,30 12.5,30 h -12 v 15 h 12 c 4.154996,0 7.5,-3.345004 7.5,-7.5 z" />

        <path
   id="path152358"
   style="fill:#ea95bf;stroke-width:1"
   d="m 42.5,37.5 c 0,2.761423 -2.238577,5 -5,5 -2.761424,0 -5,-2.238577 -5,-5 0,-2.761424 2.238576,-5 5,-5 2.761423,0 5,2.238576 5,5 z M 37.5,30 C 33.345004,30 30,33.345004 30,37.5 v 12 h 15 v -12 C 45,33.345004 41.654996,30 37.5,30 Z" />

        <path
   id="path152360"
   style="fill:#81b4fe;stroke-width:1"
   d="m 12.5,7.5 c 2.77,0 5,2.23 5,5 0,2.77 -2.23,5 -5,5 -2.77,0 -5,-2.23 -5,-5 0,-2.77 2.23,-5 5,-5 z m 0,12.5 C 16.654996,20 20,16.654996 20,12.5 V 0.5 H 5 v 12 c 0,4.154996 3.345004,7.5 7.5,7.5 z" />

        <path
   id="path152362"
   style="fill:#8be3c9;stroke-width:1"
   d="m 42.5,12.5 c 0,2.761423 -2.238577,5 -5,5 -2.761424,0 -5,-2.238577 -5,-5 0,-2.7614235 2.238576,-5 5,-5 2.761423,0 5,2.2385765 5,5 z m -12.5,0 c 0,4.154996 3.345004,7.5 7.5,7.5 h 12 V 5 h -12 C 33.345004,5 30,8.345004 30,12.5 Z" />

        <path
   style="fill:#81b4fe;fill-opacity:1;stroke:none;stroke-width:1;stroke-dasharray:none"
   d="m 25.5,30.5 h 5 v -5 z"
   id="path152364" />

        <path
   style="fill:#67dab8;fill-opacity:1;stroke:none;stroke-width:1;stroke-dasharray:none"
   d="m 24.5,30.5 h -5 v -5 z"
   id="path152366" />

        <path
   style="fill:#ea95bf;fill-opacity:1;stroke:none;stroke-width:1;stroke-dasharray:none"
   d="m 24.5,19.5 h -5 v 5 z"
   id="path152368" />

        <path
   style="fill:#b49ddf;fill-opacity:1;stroke:none;stroke-width:1;stroke-dasharray:none"
   d="m 25.5,19.5 h 5 v 5 z"
   id="path152370" />

        <path
   style="fill:#81b4fe;fill-opacity:1;stroke:none;stroke-width:1;stroke-dasharray:none"
   d="m 49.5,47.5 h -2 v 2 z"
   id="path153287" />

        <path
   style="fill:#67dab8;fill-opacity:1;stroke:none;stroke-width:1;stroke-dasharray:none"
   d="m 0.5,47.5 h 2 v 2 z"
   id="path154015" />

        <path
   style="fill:#ea95bf;fill-opacity:1;stroke:none;stroke-width:1;stroke-dasharray:none"
   d="m 0.5,2.5 h 2 v -2 z"
   id="path154155" />

        <path
   style="fill:#b49ddf;fill-opacity:1;stroke:none;stroke-width:1;stroke-dasharray:none"
   d="m 49.5,2.5 h -2 v -2 z"
   id="path154226" />

      </g>

    </pattern>
  </defs>
  <g
     id="layer1"
     transform="translate(-291.47794,-232.25602)">
    <rect
       style="opacity:1;fill:url(#pattern27);fill-opacity:1;fill-rule:evenodd;stroke:#4d4d4d;stroke-width:0.513387"
       id="rect4"
       width="453.02994"
       height="188.463"
       x="291.73465"
       y="232.51273" />
    <path
       d="m 532.15899,204.21779 c -0.57409,1.09063 -2.49579,6.11384 -5.6385,14.93892 -0.25999,0.79657 -0.83772,1.42182 -1.73187,1.87573 -0.89202,0.43454 -1.87826,0.59405 -2.96008,0.47824 -1.16499,-0.12471 -2.00996,-0.48027 -2.53571,-1.06687 -0.52356,-0.60596 -0.64465,-1.30651 -0.36152,-2.10104 0.96211,-2.77429 1.92843,-5.54774 2.89896,-8.32033 1.07438,-3.0814 2.69819,-6.96963 4.8808,-11.63768 0.11097,-0.22359 1.77049,-4.12863 5.03996,-11.70281 0.43833,-1.29694 0.87751,-2.59371 1.31752,-3.89031 1.54285,-4.56234 3.89146,-6.45293 7.0259,-5.67575 1.91498,-0.20118 5.37125,-0.0262 10.3682,0.52467 5.22689,0.57617 9.6423,2.22981 13.21834,4.95494 3.57692,2.72577 5.131,5.60781 4.69397,8.655 -0.63594,4.43407 -4.01914,8.07149 -10.07904,10.91958 -6.03035,2.83246 -13.03715,3.81971 -21.0751,2.9492 -0.84344,-0.0913 -2.53005,-0.39171 -5.06183,-0.90149 z m 9.41175,-21.69968 c -0.65906,1.71329 -1.3164,3.42693 -1.97201,5.14091 -1.66571,3.73257 -3.32119,7.4672 -4.96642,11.20388 1.52404,0.29325 3.04765,0.58641 4.57083,0.87948 1.78782,0.35126 4.44735,0.34586 7.98805,-0.0143 3.54256,-0.37946 6.53081,-1.39751 8.96738,-3.0525 2.46765,-1.67132 3.84653,-3.50961 4.12227,-5.51741 0.24394,-1.77631 -0.90758,-3.48937 -3.46777,-5.14264 -2.5598,-1.65303 -5.67597,-2.68189 -9.33686,-3.08409 -2.91719,-0.32049 -4.88566,-0.4583 -5.90547,-0.41331 z m 29.91113,40.25719 c 7.28571,0.84077 16.9378,0.67276 29.07168,-0.48309 0.45955,-0.0287 0.89865,-0.0205 1.31719,0.0245 2.31698,0.2493 3.32752,1.20748 3.03504,2.87461 -0.20843,1.18805 -1.30379,2.09568 -3.2802,2.72341 -1.97672,0.62784 -6.72267,1.00781 -14.22084,1.14365 -7.47386,0.15803 -13.42652,0.001 -17.88739,-0.47576 -2.82502,-0.30203 -4.73147,-0.8288 -5.72104,-1.58078 -0.96439,-0.72956 -1.3572,-1.73133 -1.17569,-3.00414 0.066,-0.46286 0.20831,-0.96655 0.42724,-1.51089 1.44437,-3.09553 2.89594,-6.1896 4.35472,-9.28223 4.31113,-9.1265 8.44385,-18.62421 12.38038,-28.48552 0.29706,-0.80908 0.96063,-1.44065 1.99226,-1.89469 1.06319,-0.4701 2.18396,-0.64014 3.36061,-0.5105 2.46909,0.27203 3.57603,1.20599 3.32418,2.80193 -0.085,0.53842 -1.59839,4.17639 -4.49791,10.92239 -2.87096,6.74876 -5.64711,12.88545 -8.33379,18.40673 -0.77076,1.42353 -1.53969,2.84742 -2.30678,4.27169 -0.19449,0.35064 -0.51531,1.07 -0.96116,2.15689 -0.29889,0.67238 -0.5917,1.3063 -0.8785,1.90176 z m 83.24336,-0.056 c -3.07959,-0.63501 -6.95151,-1.26873 -11.62804,-1.89688 -1.54711,-0.22854 -3.09639,-0.45688 -4.64785,-0.68503 -2.39395,0.0654 -4.78622,0.13108 -7.1768,0.19713 -7.13392,6.3012 -11.21313,9.74699 -12.48642,10.38538 -1.24644,0.6076 -2.58965,0.83447 -4.03211,0.68004 -1.02639,-0.10988 -1.85634,-0.44259 -2.49099,-0.99838 -0.60685,-0.55279 -0.85197,-1.15479 -0.73413,-1.80562 0.18183,-1.00428 3.76906,-4.35896 10.85081,-9.98212 -0.23997,-0.39651 -0.31351,-0.84337 -0.22022,-1.34043 0.33734,-1.79741 2.17902,-2.75824 5.53434,-2.88244 3.27369,-2.46322 7.88064,-5.64461 13.81499,-9.4955 0,0 0,0 0,0 1.80496,-0.94434 3.71509,-1.93473 5.73516,-2.9764 8.34325,-4.30227 12.99399,-6.21968 14.4604,-5.75618 2.01533,0.63701 3.02319,2.06126 3.0208,4.26481 -0.37303,3.22159 -0.74358,6.44295 -1.11167,9.6641 -0.43349,6.7524 -0.84084,13.50246 -1.22204,20.25017 0.21354,1.64178 0.43164,3.28315 0.6543,4.92411 0.19249,1.33722 0.24962,2.29782 0.16673,2.8865 -0.11483,0.81559 -0.7454,1.40815 -1.89928,1.77854 -1.15365,0.37033 -2.39321,0.37345 -3.71143,0.009 -1.86489,-0.51619 -3.02859,-2.14497 -3.47647,-4.89264 -0.44565,-2.77202 -0.23938,-6.86931 0.59992,-12.32774 z m 1.46008,-17.28026 c -5.35676,2.83744 -10.85744,5.68779 -16.50204,8.55104 -0.16984,0.10976 -0.33965,0.21952 -0.50941,0.3293 0.14321,-0.01 0.29288,-0.0191 0.44902,-0.0285 2.90526,0.33259 8.13181,1.12676 15.58177,2.38163 0.31946,-3.74384 0.64634,-7.48835 0.98066,-11.23352 z m 65.76805,9.93646 c 0.92347,-0.49753 1.9439,-0.63704 3.0676,-0.41924 0.25351,-0.10481 0.51209,-0.19626 0.77573,-0.27435 2.03768,-0.60355 3.05654,0.19958 3.05616,2.40977 -5.5e-4,3.16543 -0.49021,5.43582 -1.46957,6.81169 -0.63883,0.88526 -1.42814,1.58782 -2.36788,2.10771 0,0 0,0 0,0 -0.48842,-0.0205 -1.01901,-0.1183 -1.591,-0.29336 -1.67347,-0.51216 -2.78024,-1.54557 -3.31731,-3.10438 -0.53659,-1.57685 -1.12824,-2.53332 -1.78208,-2.86822 -0.62715,-0.34542 -1.87243,-0.80784 -3.73469,-1.38624 -4.62329,-1.43598 -10.36909,-0.32957 -17.67323,3.34422 -7.29031,3.67023 -11.34587,7.73365 -11.7613,12.17532 -0.18024,1.9271 0.57784,3.89889 2.30461,5.91735 1.7268,2.01847 4.12793,3.45488 7.18304,4.31586 2.48757,0.70104 4.92634,1.07124 7.30081,1.11192 2.40285,0.0298 5.8942,-0.30867 10.39931,-1.0094 1.83938,-0.25014 3.12893,-0.26668 3.88167,-0.0506 1.05907,0.30399 1.91878,0.79607 2.58157,1.47549 0.69066,0.68736 1.03362,1.37805 1.02491,2.0716 -0.007,0.54368 -0.29437,1.03566 -0.8661,1.47616 -0.57125,0.42158 -2.58562,0.89629 -6.08521,1.42695 -3.50169,0.51228 -6.92848,0.68005 -10.25214,0.5008 -3.32384,-0.17925 -6.57332,-0.70405 -9.72431,-1.57666 -5.27651,-1.46123 -9.4547,-3.85075 -12.47634,-7.18664 -2.99355,-3.32832 -4.26092,-6.63593 -3.88805,-9.9304 0.68779,-6.07692 5.96107,-11.42335 15.16736,-16.00411 9.22075,-4.58472 17.08439,-5.71336 24.27725,-3.43735 2.84316,0.89965 4.83348,1.69935 5.96919,2.39613 z m 23.41295,-1.23228 c 0.002,1.79725 -1.16062,6.69007 -3.49386,14.66786 6.06855,-2.19472 12.13646,-4.38961 18.20375,-6.58468 5.08816,-1.84029 8.32488,-2.96516 9.71302,-3.37514 2.44887,-0.72326 3.6763,-0.30689 3.68195,1.24942 0.007,2.00636 -1.49926,3.5864 -4.52046,4.74058 -9.66265,3.45157 -19.32678,6.90272 -28.9924,10.35345 -1.84722,6.37332 -2.77193,10.82216 -2.77057,13.35191 6.1e-4,1.14274 0.34176,1.77305 1.02352,1.89099 0.70903,0.1099 2.60398,-0.28835 5.68478,-1.19479 5.11186,-1.58836 10.22361,-3.17675 15.33525,-4.76518 0.35433,-0.10425 1.62202,-0.57099 3.80243,-1.40021 3.18874,-1.21967 4.78596,-0.96743 4.79138,0.75746 0.005,1.72483 -0.98643,3.12351 -2.9762,4.19628 -1.9627,1.06488 -7.94869,3.06818 -17.95974,6.01085 -7.74665,2.27707 -12.67048,3.16228 -14.77063,2.65587 -2.07286,-0.4957 -3.10862,-2.24181 -3.10813,-5.23857 5.3e-4,-3.3159 1.07823,-8.4542 3.2285,-15.42059 -0.13625,-0.39063 -0.20426,-0.69837 -0.20428,-0.92314 -8e-5,-0.82416 0.43541,-1.66449 1.30624,-2.52101 1.65862,-5.67681 2.69127,-9.45206 3.09791,-11.31283 0.43425,-1.88955 0.65089,-3.4901 0.65019,-4.80141 0.18896,-2.56654 0.65002,-4.40819 1.38302,-5.52466 0.73302,-1.11651 1.99601,-1.94046 3.78905,-2.47166 1.14106,-0.33805 2.07865,-0.32532 2.81295,0.0382 6.95426,-3.2971 12.88748,-5.6743 17.80481,-7.13134 4.15639,-1.23158 7.75641,-2.06377 10.80091,-2.49652 3.04445,-0.43273 4.9347,-0.5139 5.67032,-0.24362 0.73554,0.25151 1.10485,0.72422 1.10779,1.41809 0.004,0.90016 -0.48196,1.84199 -1.45761,2.82547 -0.94846,0.97543 -2.0344,1.6441 -3.25764,2.00611 -0.32619,0.0965 -0.74774,0.16496 -1.26461,0.20532 -4.51549,0.45414 -8.82458,1.28888 -12.92861,2.50376 -4.51201,1.33564 -9.90495,3.51363 -16.18303,6.5337 z m 82.60451,-5.30494 c -5.11821,1.60389 -10.94059,3.80135 -17.4703,6.59211 -5.90387,2.51215 -11.8089,5.02396 -17.7151,7.53545 -0.21126,1.30179 -1.01584,3.94482 -2.41477,7.92554 -1.29071,3.85579 -2.05602,6.48422 -2.29506,7.8886 -0.21441,0.83318 -0.75669,1.64065 -1.62699,2.42241 -0.84293,0.79249 -1.83727,1.3571 -2.98287,1.69386 -2.20945,0.64949 -3.31706,0.25215 -3.32311,-1.19176 -0.004,-0.97605 0.89642,-4.42144 2.69852,-10.34244 1.82974,-5.75906 3.03377,-10.63196 3.61447,-14.6158 0.18612,-0.98465 0.3722,-1.96932 0.55823,-2.954 0.15957,-0.8172 0.2789,-1.50048 0.35798,-2.04975 0.15964,-0.79852 0.41354,-1.81264 0.76165,-3.04257 1.76692,-6.17392 2.79593,-10.00585 3.08723,-11.47997 0.15908,-0.81735 0.68564,-1.62144 1.57949,-2.41225 0.89376,-0.80958 1.89752,-1.3794 3.01144,-1.70938 2.20059,-0.65189 3.30547,-0.2181 3.31432,1.30165 0.003,0.52472 -0.64855,3.12461 -1.95656,7.79555 -1.06874,3.69933 -1.72265,6.14596 -1.96148,7.34462 -0.42234,2.49234 -0.84495,4.9846 -1.26781,7.47679 5.98506,-2.51765 11.96898,-5.03562 17.95174,-7.55391 7.34286,-3.0891 13.32525,-5.31666 17.95221,-6.68282 0.92885,-3.07854 1.98273,-7.45613 3.1598,-13.13172 0.36655,-1.72743 1.14065,-3.58494 2.3218,-5.57268 1.20833,-1.99579 2.5593,-3.21514 4.0536,-3.65778 0.9781,-0.28974 1.7952,-0.31522 2.4514,-0.0764 0.68335,0.23076 1.02833,0.68423 1.03478,1.36036 0.004,0.3944 -0.23586,0.98333 -0.71901,1.7667 -0.61743,0.99263 -1.11956,2.66677 -1.50647,5.02226 -0.61807,3.8738 -1.73577,8.32874 -3.3548,13.36315 -1.29957,4.18797 -2.10712,6.99412 -2.42235,8.42465 -0.31506,1.42974 -0.7162,3.92922 -1.20413,7.4993 -0.29813,3.40105 -0.57971,5.60173 -0.84439,6.60197 -0.23744,0.99226 -0.79036,1.86077 -1.6589,2.60558 -0.86853,0.7448 -1.84834,1.27754 -2.93927,1.5983 -0.95457,0.28066 -1.74744,0.27852 -2.37847,-0.006 -0.6309,-0.26611 -0.94884,-0.7183 -0.95394,-1.35658 0.33625,-2.38521 0.6723,-4.77047 1.00813,-7.15579 0.54119,-4.01716 1.06267,-7.02195 1.56495,-9.01445 0.18507,-0.73209 0.35641,-1.46956 0.51404,-2.21242 z m 17.00355,0.60668 c -0.0347,-3.56884 1.41058,-8.07231 4.33077,-13.51301 2.91996,-5.44032 7.42006,-10.85062 13.49608,-16.23057 0.11081,-0.0981 0.22181,-0.19569 0.33301,-0.29274 5.96459,-1.76619 12.44754,-1.63747 19.51993,0.35563 15.28646,4.30796 23.17349,10.88843 23.54417,19.62849 0.30581,7.21033 -3.07883,13.12229 -10.31561,17.80926 -7.20486,4.67247 -16.02708,5.71563 -26.3013,3.05122 -2.11604,-0.54876 -4.11905,-1.18191 -6.0082,-1.90024 -4.6032,0.78266 -8.51994,0.65432 -11.74879,-0.38461 -4.52747,-1.47551 -6.80921,-4.3162 -6.85006,-8.52343 z m 8.40673,-3.49515 c 0.0307,2.94941 1.66298,4.871 4.89898,5.76541 1.53715,0.42485 3.27841,0.58142 5.22361,0.46967 2.18585,1.07995 4.62649,1.97193 7.31988,2.67803 7.34884,1.92657 13.77649,0.98128 19.18617,-2.79009 5.41141,-3.79163 7.96789,-8.47231 7.76462,-14.08519 -0.11437,-3.15783 -1.51408,-5.70836 -4.18429,-7.648 -2.64367,-1.95067 -6.68766,-3.68976 -12.13057,-5.20731 -6.76669,-1.88663 -12.82012,-1.35816 -18.24245,1.62287 -0.43847,0.494 -0.87245,1.00139 -1.30198,1.52219 -5.73583,6.95477 -8.58429,12.84428 -8.53397,17.67242 z m 65.234,22.26221 c 7.27911,1.95999 16.67247,3.29516 28.14245,4.05226 0.43762,0.0435 0.86395,0.11992 1.27909,0.22932 2.29608,0.60504 3.50529,1.70367 3.62436,3.29291 0.0849,1.13303 -0.75826,1.85268 -2.53465,2.16098 -1.77647,0.30832 -6.316,-0.0574 -13.63592,-1.09005 -7.29483,-1.00753 -13.18601,-2.08548 -17.67437,-3.24752 -2.84211,-0.73583 -4.81965,-1.54893 -5.93359,-2.44163 -1.08507,-0.86682 -1.65347,-1.91135 -1.70777,-3.13381 -0.0198,-0.44446 0.0279,-0.91709 0.14277,-1.41781 0.84835,-2.81628 1.69026,-5.62969 2.52574,-8.44024 2.47227,-8.29554 4.58232,-16.97337 6.34339,-26.04406 0.12054,-0.74804 0.61228,-1.26433 1.47395,-1.54834 0.88775,-0.29488 1.88351,-0.28593 2.9891,0.0261 2.31799,0.65413 3.52322,1.74618 3.61254,3.27313 0.0301,0.51536 -0.61898,3.84981 -1.98521,10.02021 -1.33905,6.17807 -2.7634,11.76968 -4.26768,16.77345 -0.46303,1.2778 -0.9277,2.55633 -1.39401,3.83559 -0.1204,0.31442 -0.2912,0.97022 -0.51365,1.96858 -0.16005,0.6138 -0.32223,1.1908 -0.48654,1.73097 z m 46.67975,15.39426 -0.41715,-0.10849 c -1.11253,-0.28936 -2.02064,-0.73919 -2.72391,-1.35016 -0.70476,-0.62917 -1.08265,-1.26275 -1.1348,-1.90056 -0.0358,-0.43828 0.21387,-1.70884 0.74439,-3.81555 0.69515,-3.06004 1.38334,-6.11698 2.06457,-9.17082 0.45999,-2.04239 1.40303,-7.98589 2.7185,-17.58089 0.16067,-1.17844 0.32058,-2.35655 0.47974,-3.53433 0.10545,-0.89167 0.78539,-1.54221 2.03682,-1.95029 1.2784,-0.40049 2.48205,-0.4401 3.61425,-0.12036 0.59618,0.16837 2.66748,1.34542 6.24371,3.53149 3.87936,2.40942 6.18768,3.77694 6.86976,4.08957 7.23206,3.7088 13.3396,7.9524 18.31517,12.71127 5.0046,4.76814 7.7839,9.17541 8.2808,13.23982 0.4534,3.70743 -0.7891,6.8878 -3.7677,9.55949 -2.9803,2.65334 -6.8044,4.20055 -11.45928,4.63507 -4.62425,0.44147 -10.71582,-0.3053 -18.23696,-2.25192 -2.20062,-0.56956 -4.70424,-1.45611 -7.50447,-2.6609 -2.79923,-1.18691 -4.83937,-2.29428 -6.12344,-3.32244 z m 9.47013,-32.00935 c -0.64801,4.87523 -1.30915,9.75632 -1.98343,14.64325 -0.94266,4.58438 -1.90055,9.17553 -2.87367,13.77347 0.0864,0.0582 0.18659,0.11996 0.30066,0.1854 2.71538,1.91966 5.88049,3.34824 9.48904,4.29219 7.13147,1.86552 12.28238,2.40188 15.42553,1.6184 3.17342,-0.77685 5.51329,-2.04388 7.02529,-3.80341 1.5121,-1.75962 2.1287,-3.7859 1.8628,-6.08482 -0.268,-2.31649 -1.5031,-4.72079 -3.6918,-7.21673 -2.16106,-2.48815 -4.96221,-4.85371 -8.39761,-7.09425 -3.45619,-2.27095 -9.15389,-5.6784 -17.15681,-10.3135 z m 59.14792,15.37542 c 0.2395,1.69724 -0.3108,5.6966 -1.7028,11.96663 2.403,0.50771 4.8052,1.01578 7.2066,1.52423 3.1542,-2.21619 6.2945,-4.43037 9.4209,-6.64254 4.3666,-3.08908 7.0911,-4.98085 8.3092,-5.74433 2.1129,-1.32427 3.3836,-1.27348 3.7949,0.17398 0.5305,1.86697 -0.5089,3.7333 -3.1595,5.63567 -5.8186,3.9953 -11.6797,7.99673 -17.5834,12.00429 -3.0522,-0.65014 -6.1056,-1.29973 -9.1602,-1.94876 -1.1107,5.03833 -1.5204,8.75642 -1.1962,11.16592 0.1463,1.08705 0.5862,1.87253 1.3209,2.35704 0.7626,0.4919 2.7111,1.14736 5.8474,1.96789 1.7766,0.4384 3.553,0.87685 5.3293,1.31535 3.2949,-1.93041 6.5868,-3.86041 9.8758,-5.78998 0.3441,-0.19579 1.5783,-0.99583 3.6729,-2.38664 3.0553,-2.03608 4.7894,-2.2651 5.1942,-0.65105 0.404,1.61118 -0.3296,3.1949 -2.2342,4.77292 -1.7357,1.44504 -6.958,4.6006 -15.7225,9.50968 0,0 0,0 0,0 -0.7453,-0.19019 -1.5156,-0.38823 -2.311,-0.59409 -7.9168,-2.049 -13.0111,-3.88187 -15.2963,-5.51096 -2.2536,-1.60301 -3.5578,-3.8328 -3.9242,-6.6927 -0.4056,-3.16633 0.1023,-7.47202 1.482,-12.92415 -0.1908,-0.44748 -0.3,-0.7784 -0.3279,-0.99255 -0.1025,-0.78531 0.2474,-1.34489 1.048,-1.67799 1.017,-4.47827 1.6102,-7.50907 1.7944,-9.04399 0.2101,-1.5547 0.2301,-2.95563 0.062,-4.2027 -0.1316,-2.33454 0.1092,-3.82715 0.7214,-4.47644 0.6125,-0.64968 1.807,-0.72244 3.5855,-0.21978 1.1318,0.31985 2.1001,0.85838 2.9057,1.61463 1.3324,0.15327 2.6279,0.31863 3.8865,0.49596 3.9497,-3.54193 7.368,-6.33589 10.3926,-8.42635 3.1805,-2.19826 5.9802,-3.87959 8.4454,-5.05588 2.4626,-1.17502 4.0629,-1.73371 4.7759,-1.67234 0.7071,0.044 1.1695,0.38563 1.378,1.02576 0.2708,0.83097 0.1257,1.82542 -0.4514,2.98849 -0.5553,1.14837 -1.331,2.04939 -2.3133,2.7027 -0.2618,0.17415 -0.6155,0.34691 -1.0599,0.51825 -3.8536,1.59036 -7.3677,3.47341 -10.6294,5.65938 -2.8625,1.91847 -6.0772,4.4692 -9.7558,7.6866 -1.1736,-0.1569 -2.3808,-0.30099 -3.6218,-0.43215 z m 44.8015,0.45571 c 0.4819,2.30644 0.951,4.61473 1.4073,6.92486 0.2813,1.88817 0.5521,3.77786 0.8123,5.66909 0.1131,0.74744 -0.1739,1.64719 -0.8734,2.703 -0.6722,1.04053 -1.656,1.92054 -2.9418,2.64035 -1.0664,0.597 -2.0009,0.86317 -2.7956,0.79768 -0.7679,-0.0808 -1.2424,-0.41602 -1.4313,-1.00477 -0.2866,-2.43547 -0.5889,-4.86867 -0.907,-7.2996 -0.7701,-5.45199 -1.0768,-10.5835 -0.9659,-15.32138 0.188,-5.01953 -0.2836,-9.25119 -1.2461,-12.67135 -0.649,-2.35114 -1.007,-4.00409 -1.0662,-4.95263 -0.044,-0.98102 0.2636,-2.12672 0.9086,-3.43267 0.6663,-1.3204 1.5921,-2.34882 2.7989,-3.0865 2.5905,-1.57423 5.1896,-3.14971 7.7973,-4.72644 3.9578,-2.38539 8.4976,-3.58667 13.9249,-3.64775 5.4188,-0.061 9.3204,1.53291 11.3405,4.82739 3.4872,5.68723 0.1906,13.22288 -10.8597,23.03972 5.0185,-0.89368 9.7867,-1.29431 14.2976,-1.20059 4.5351,0.062 7.2138,0.6284 7.8727,1.73026 0.429,0.71732 0.3456,1.65811 -0.2663,2.82595 -0.6119,1.16789 -1.5788,2.11923 -2.887,2.85358 -1.008,0.56586 -2.0627,0.82682 -3.153,0.78153 -12.5671,-1.53916 -22.7688,-0.7447 -31.7668,2.55027 z m -2.8939,-24.33382 c 0.5123,1.77993 1.018,3.56082 1.5171,5.34265 0.1895,0.59139 0.3659,1.53355 0.5187,2.8167 0.1684,1.25104 0.2749,2.79456 0.3027,4.61886 0.069,2.11179 0.1169,4.22666 0.1434,6.3446 l 3.2306,-1.96593 c 7.1682,-4.3621 12.1212,-8.36681 14.7897,-12.06478 2.6848,-3.70199 3.496,-6.34489 2.594,-7.95437 -1.1271,-2.01111 -3.6467,-2.98509 -7.3936,-2.94429 -3.7509,0.0409 -7.3061,1.0196 -10.7972,2.95356 -1.6386,0.9515 -3.2737,1.9025 -4.9054,2.853 z"
       id="text28"
       style="font-style:italic;font-size:59.9943px;font-family:'Comic Sans MS';-inkscape-font-specification:'Comic Sans MS Italic';fill:url(#pattern50);fill-rule:evenodd;stroke:#000000;stroke-width:3.16841"
       transform="matrix(0.64005518,0,0,1.5623653,0,-9.6407817)"
       aria-label="PLACEHOLDER" />
  </g>
</svg>
