<?xml version="1.0" standalone="no"?>
<!DOCTYPE svg PUBLIC "-//W3C//DTD SVG 20010904//EN"
 "http://www.w3.org/TR/2001/REC-SVG-20010904/DTD/svg10.dtd">
<svg version="1.0" xmlns="http://www.w3.org/2000/svg"
 width="500.000000pt" height="500.000000pt" viewBox="0 0 500.000000 500.000000"
 preserveAspectRatio="xMidYMid meet">

<g transform="translate(0.000000,500.000000) scale(0.100000,-0.100000)"
fill="#000000" stroke="none">
<path d="M1912 4256 c-207 -52 -379 -225 -427 -427 -32 -139 -11 -318 53 -445
l29 -58 -28 -57 c-45 -87 -59 -187 -39 -260 12 -42 54 -89 81 -89 25 0 65 46
108 125 49 91 61 94 61 12 0 -77 30 -173 73 -237 29 -42 137 -154 185 -192
156 -123 463 -308 511 -308 21 0 237 142 330 216 157 126 273 266 320 386 13
32 36 68 54 82 35 30 41 25 52 -41 15 -96 86 -124 143 -58 17 19 35 52 39 72
12 57 7 155 -11 218 -16 54 -16 57 3 88 183 296 169 608 -37 816 -135 136
-292 188 -475 156 -128 -22 -236 -82 -340 -187 l-58 -58 -69 67 c-82 81 -170
136 -260 164 -83 26 -226 33 -298 15z m263 -69 c95 -24 174 -75 277 -179 42
-43 80 -78 85 -78 5 0 40 32 78 71 149 151 271 206 434 196 47 -3 97 -8 111
-11 59 -14 139 -64 201 -125 180 -180 203 -443 62 -703 l-26 -48 -52 58 c-73
80 -162 122 -259 122 -82 0 -221 26 -278 53 -29 13 -78 44 -108 68 -88 71
-102 79 -146 79 -44 0 -51 -5 -159 -95 -113 -95 -213 -120 -385 -95 -139 20
-261 -10 -358 -87 l-42 -35 -26 55 c-31 69 -54 174 -54 252 0 253 188 479 427
513 44 7 174 0 218 -11z m417 -565 c14 -9 55 -39 90 -66 35 -27 82 -57 106
-68 57 -26 164 -48 234 -48 129 0 216 -36 288 -117 75 -85 106 -178 97 -289
-8 -110 -64 -156 -79 -66 -9 56 -47 138 -83 180 -33 40 -69 41 -73 2 -18 -179
-87 -317 -227 -456 -71 -70 -240 -204 -257 -204 -10 0 -64 36 -86 57 -7 7 -20
17 -29 22 -14 7 -10 16 29 62 136 163 238 386 238 523 0 61 -36 124 -100 173
-117 91 -175 157 -210 238 -16 36 -18 51 -9 61 15 19 38 17 71 -4z m74 -308
c47 -36 91 -79 99 -95 53 -102 -47 -360 -217 -558 l-37 -43 -38 30 c-92 74
-187 190 -230 280 -21 46 -26 72 -26 137 -1 69 3 86 25 120 14 23 51 58 82 78
31 20 80 53 109 72 29 19 66 48 81 64 l29 30 19 -25 c11 -13 58 -54 104 -90z"/>
<path d="M1975 3928 c-86 -31 -139 -107 -139 -202 1 -149 119 -241 272 -210
44 9 106 65 131 119 79 169 -88 355 -264 293z"/>
<path d="M2004 2266 c-18 -8 -35 -19 -38 -25 -10 -16 -26 -14 -26 3 0 21 -23
26 -135 26 -72 0 -106 -4 -112 -12 -4 -7 -10 -75 -13 -150 l-5 -138 -37 36
c-137 129 -365 102 -478 -56 -18 -25 -36 -51 -40 -58 -6 -11 -18 -6 -53 21
-25 19 -51 37 -58 39 -6 2 21 35 60 73 46 44 71 76 71 91 0 31 -65 92 -130
123 -48 23 -68 26 -160 26 -95 0 -110 -3 -157 -27 -89 -48 -133 -123 -133
-230 0 -83 13 -112 76 -168 l39 -34 -74 -72 c-67 -65 -73 -75 -67 -101 10 -38
78 -99 146 -131 48 -23 68 -26 161 -26 95 0 111 2 162 27 31 16 74 48 95 72
l39 44 48 -49 c69 -70 129 -94 235 -94 99 0 153 20 219 79 l41 37 0 -34 c0
-18 7 -44 16 -56 14 -20 23 -22 113 -22 75 0 102 4 111 15 11 13 15 13 33 0
15 -11 48 -15 113 -15 109 0 124 10 124 84 l0 48 53 -55 c64 -68 135 -94 226
-82 31 4 152 7 270 6 245 -1 250 0 271 73 l13 46 96 0 97 0 18 -50 c10 -28 26
-55 36 -60 10 -6 53 -10 94 -10 l76 0 0 -70 c0 -99 13 -110 125 -110 112 0
125 11 125 109 l0 69 78 -1 c89 -1 148 21 196 72 17 17 33 31 38 31 4 0 8 -56
8 -124 0 -154 2 -156 127 -156 110 0 123 12 123 111 l0 71 45 -7 c225 -33 391
217 291 440 -50 110 -131 167 -239 168 -216 1 -321 -4 -333 -14 -8 -7 -14 -30
-14 -55 0 -24 -3 -44 -6 -44 -3 0 -17 14 -31 30 -14 17 -45 42 -70 57 -48 28
-37 27 -305 25 -165 -2 -158 7 -158 -202 -1 -154 -6 -170 -30 -92 -5 15 -36
101 -70 192 -34 91 -68 185 -76 210 -9 25 -23 51 -32 58 -17 13 -208 17 -229
4 -6 -4 -19 -27 -28 -52 -9 -25 -21 -54 -25 -65 -5 -11 -41 -110 -81 -220 -39
-110 -75 -204 -80 -209 -5 -6 -9 107 -9 265 0 201 -3 278 -12 287 -8 8 -48 12
-113 12 -65 0 -105 -4 -113 -12 -7 -7 -12 -43 -12 -93 l0 -82 -72 0 c-97 1
-163 -28 -222 -95 l-43 -49 -5 66 c-3 36 -1 79 5 94 22 59 -16 141 -79 167
-41 17 -70 17 -110 0z m-1075 -57 c54 -11 138 -60 148 -85 4 -10 -8 -30 -34
-56 l-40 -40 -37 26 c-70 47 -169 45 -193 -5 -27 -56 -5 -75 142 -124 130 -43
185 -99 185 -188 0 -65 -19 -106 -69 -149 -55 -47 -109 -61 -213 -56 -94 4
-155 28 -203 77 l-29 32 47 47 c31 30 50 43 55 36 11 -18 76 -52 122 -64 99
-27 184 54 114 109 -14 11 -66 34 -117 50 -51 17 -106 40 -124 51 -67 40 -92
144 -54 225 25 54 60 84 123 106 61 21 107 23 177 8z m959 -331 l2 -338 -75 0
-75 0 0 340 0 341 73 -3 72 -3 3 -337z m229 320 c32 -30 31 -78 -3 -112 -37
-36 -77 -34 -116 4 -25 26 -29 36 -24 63 3 18 16 40 27 50 30 24 87 22 116 -5z
m604 -215 c1 -235 1 -362 0 -415 -1 -28 -2 -28 -66 -28 -58 0 -65 2 -65 20 0
25 -2 25 -46 -5 -30 -20 -49 -25 -99 -25 -75 0 -119 17 -161 62 -45 47 -65 93
-71 159 -10 102 32 193 111 246 36 24 51 27 121 28 62 0 86 -4 108 -19 l27
-18 0 116 0 116 70 0 70 0 1 -237z m503 150 c15 -43 46 -125 68 -183 22 -58
52 -139 68 -180 15 -41 40 -105 54 -143 14 -37 26 -72 26 -77 0 -6 -32 -10
-73 -10 l-73 0 -13 38 c-7 20 -17 49 -23 65 l-10 27 -128 0 -127 0 -16 -42
c-8 -24 -18 -53 -22 -65 -6 -21 -12 -23 -86 -23 -43 0 -79 2 -79 5 0 3 12 35
26 72 14 38 39 104 56 148 16 44 34 89 38 100 12 29 69 181 92 245 40 110 28
100 116 100 l77 0 29 -77z m-1669 -137 c144 -85 167 -289 44 -403 -67 -62
-202 -82 -291 -44 -103 44 -148 115 -148 235 0 67 3 78 33 122 36 54 98 102
148 115 64 16 163 4 214 -25z m2286 27 c49 -10 122 -87 144 -152 21 -64 17
-159 -9 -213 -23 -48 -71 -95 -115 -114 -49 -20 -129 -18 -176 6 -22 11 -41
20 -42 20 -2 0 -3 -47 -3 -105 l0 -105 -70 0 -70 0 0 330 0 330 66 0 c58 0 67
-2 71 -20 5 -19 7 -20 23 -5 34 30 110 42 181 28z m622 -30 c22 -15 54 -52 70
-82 27 -47 31 -64 31 -130 0 -117 -49 -199 -141 -238 -49 -20 -132 -17 -171 7
-18 11 -35 20 -37 20 -3 0 -5 -47 -5 -105 l0 -105 -75 0 -75 0 0 330 0 330 70
0 c56 0 70 -3 70 -15 0 -17 25 -20 35 -5 11 18 69 29 129 26 45 -3 69 -11 99
-33z m-2325 -215 l2 -238 -75 0 -75 0 0 240 0 241 73 -3 72 -3 3 -237z"/>
<path d="M2398 1890 c-57 -44 -57 -158 -2 -214 38 -37 110 -37 148 1 33 32 40
59 34 125 -4 42 -11 57 -37 80 -39 35 -105 39 -143 8z"/>
<path d="M3077 1906 c-20 -57 -37 -106 -37 -110 0 -3 36 -6 81 -6 61 0 80 3
76 13 -2 6 -19 53 -37 102 -18 50 -35 93 -39 97 -3 4 -23 -39 -44 -96z"/>
<path d="M1380 1907 c-92 -32 -109 -184 -28 -241 33 -23 109 -21 141 5 68 53
50 212 -26 234 -45 13 -53 13 -87 2z"/>
<path d="M3683 1889 c-48 -31 -63 -87 -42 -162 17 -63 90 -94 153 -65 28 12
66 81 66 118 0 13 -9 42 -20 65 -32 66 -96 83 -157 44z"/>
<path d="M4260 1892 c-26 -12 -39 -28 -48 -57 -31 -95 18 -185 102 -185 71 1
106 45 106 135 0 51 -3 60 -34 91 -39 39 -72 43 -126 16z"/>
</g>
</svg>
