<?xml version="1.0" encoding="UTF-8" standalone="no"?>
<svg
   width="40"
   height="40.000076"
   viewBox="0 0 40 40.000076"
   version="1.1"
   id="svg10"
   xmlns="http://www.w3.org/2000/svg"
   xmlns:svg="http://www.w3.org/2000/svg">
  <defs
     id="defs10">
    <clipPath
       clipPathUnits="userSpaceOnUse"
       id="clipPath401">
      <path
         id="path402"
         style="fill:#ff0000;fill-opacity:1;fill-rule:nonzero;stroke:none"
         d="m 299.16211,216.86523 v 22.58204 c 0.23734,-0.68669 0.48314,-1.36481 0.72656,-2.00782 0.36047,-0.95221 0.75166,-1.89338 1.12695,-2.83984 2.39684,-5.76405 5.08397,-11.39899 7.83594,-17 0.126,-0.25645 0.25698,-0.50116 0.39063,-0.73438 z m 19.22656,0 c 0.14779,1.35928 -0.14352,3.02239 -1.06445,4.89649 -2.64361,5.37971 -5.22793,10.79268 -7.53711,16.32617 -0.87485,2.1944 -1.06505,2.5889 -1.80078,4.72656 -0.19898,0.57813 -0.38498,1.16222 -0.56641,1.7461 -0.0126,0.0404 -0.4013,1.33907 -0.4707,1.67383 -0.0244,0.11788 -0.0312,0.23803 -0.0469,0.35742 -0.0795,0.60337 -0.19318,1.16489 -0.33593,1.68359 0,0.39679 -5e-5,0.79284 0,1.18945 0,1.43844 8.5e-4,2.87602 0.002,4.31446 10e-4,2.45302 0.003,4.90636 0.008,7.35937 0.009,4.63303 0.0215,9.26547 0.0449,13.89844 0.031,5.6154 0.0582,11.23136 0.17969,16.8457 0.0609,2.06135 0.14941,4.12175 0.19141,6.1836 0.004,0.19153 0.004,0.38029 0,0.56445 0.32085,1.18264 0.71212,2.34133 1.11523,3.5 0.65381,1.97096 1.2813,3.95052 1.8457,5.94922 0.75973,2.64714 1.59889,5.27026 2.57227,7.84765 0.76116,2.0428 1.58708,4.06961 2.19141,6.16602 0.18203,0.63148 0.30809,1.23002 0.38281,1.79297 0.57478,0.49673 1.14373,1.11057 1.69336,1.85351 0.28874,0.39028 0.57702,0.78279 0.85937,1.17774 0.8406,1.19127 1.67726,2.38599 2.4375,3.63086 0.83977,1.41595 1.65548,2.84748 2.42188,4.30469 0.94807,1.85803 1.85022,3.75532 2.19922,5.83203 0.0468,0.38712 0.11242,0.77319 0.14062,1.16211 0.101,1.39404 -0.12713,2.78656 -0.27148,4.16796 -0.36906,2.5499 -0.8387,4.88451 -2.29492,7.07813 -0.26427,0.36295 -0.51192,0.73971 -0.79297,1.08984 -0.97732,1.21756 -2.16413,2.2366 -3.33789,3.26368 -0.1407,0.77481 -0.39471,1.60866 -0.78125,2.49414 -0.35788,0.8198 -0.18158,0.41262 -0.53125,1.2207 -0.19226,0.4642 -0.37706,0.9265 -0.53321,1.4043 -0.0794,0.24293 -0.24464,0.81696 -0.31054,0.97851 -0.12173,0.29833 -0.27658,0.58165 -0.41407,0.87305 -1.63513,3.4654 -2.56875,1.87719 -3.39648,-0.63086 -0.16585,0.65992 -0.41708,1.35894 -0.76758,2.0918 -0.25743,0.53826 -0.41271,1.1188 -0.60547,1.68164 -0.41992,1.48363 -0.60287,3.02145 -0.78515,4.54883 -0.2107,2.45346 -0.28425,4.91695 -0.53907,7.36718 -0.19076,1.93898 -0.39553,3.88971 -0.26562,5.83985 0.26303,3.02532 0.71212,6.03424 0.875,9.06836 0.0224,0.60139 0.0562,1.20101 0.0664,1.80273 0.007,0.40853 -0.01,0.818 -0.0156,1.22656 -0.0186,1.34463 -0.0487,2.68845 -0.0547,4.03321 0.0128,1.53056 0.15573,3.05474 0.31641,4.57617 10e-4,0.0629 0.0422,0.14005 0.004,0.18945 l -0.002,0.002 -0.002,0.002 -0.002,0.002 h -0.002 -0.002 -0.002 -0.002 l -0.002,-0.002 -0.002,-0.002 c -0.016,-0.0209 -0.0319,-0.0857 -0.0488,-0.11132 -0.0154,-0.0233 -0.0505,-0.0825 -0.0625,-0.0957 l -0.002,-0.002 h -0.002 v 0.002 0.002 0.002 0.002 c 0.12873,0.36961 0.40332,0.68168 0.56641,1.03321 0.80753,1.3306 1.67216,2.62637 2.51367,3.93554 1.0432,1.6091 2.1327,3.18636 3.20313,4.77735 0.72886,1.0296 1.45489,2.06697 2.38671,2.92773 0.15641,0.13223 0.17715,0.16318 0.35157,0.26367 0.32848,0.18924 0.71853,0.23943 1.08008,0.32813 2.01585,0.49462 3.47474,1.31702 4.42382,2.27539 0.76848,0.0526 1.45879,0.18525 2.07032,0.38281 1.32252,-1.71791 2.57514,-3.48812 3.81836,-5.26367 2.01428,-2.88044 4.05749,-5.74096 6.14843,-8.56641 0.87444,-1.15544 1.22836,-1.63246 2.125,-2.77344 0.3353,-0.42666 0.67371,-0.84851 1.01368,-1.27148 0.12921,-0.16077 1.09658,-1.34352 1.33007,-1.65625 0.15188,-0.20342 0.29188,-0.4151 0.4375,-0.62305 0.13189,-0.21612 0.27249,-0.42768 0.39649,-0.64843 0.713,-1.2694 1.19446,-2.65601 1.60742,-4.04688 0.59383,-2.04828 1.09712,-4.14273 2.06445,-6.05664 1.26763,-2.47614 2.67708,-4.8792 4.18164,-7.21875 0.32251,-0.47896 1.03303,-1.56105 1.41211,-2.0293 0.29453,-0.36381 0.49361,-0.88912 0.9336,-1.04882 1.29885,-0.47155 2.74715,-1.35403 4.08007,-1.30079 0.3076,0.0123 0.61051,0.0746 0.90235,0.20313 3.50112,1.54145 3.28815,3.13784 3.16015,5.26367 -0.0795,0.77902 -0.19831,1.55999 -0.19531,2.34375 0.0944,1.21768 0.25287,2.42827 0.42774,3.63672 0.50094,3.27204 1.10155,6.52714 1.70703,9.78125 0.75364,4.32435 1.5103,8.65852 1.85351,13.03906 0.10408,1.75285 0.17768,3.50341 0.14258,5.25977 -0.0179,0.89523 -0.11874,1.70404 -0.28516,2.42773 0.36494,1.34524 0.80695,2.66898 1.37305,3.94531 0.95844,2.16438 1.94573,4.32034 3.12891,6.37305 1.99501,3.25157 4.12337,6.42042 6.16211,9.64453 2.60287,3.99133 5.21045,7.98503 8.0625,11.80469 0.34749,0.44783 0.68807,0.90178 1.04297,1.34375 0.96056,1.19623 2.01849,2.31019 2.97656,3.50781 1.74243,2.17812 2.31379,4.19191 2.0957,5.75781 0.67385,0.65925 1.41753,1.24532 2.1582,1.82618 3.64425,2.78267 7.24496,5.62079 10.83985,8.46679 0.89796,0.68233 1.78986,1.3719 2.69336,2.04688 2.07867,1.55291 4.55539,3.34313 6.65234,4.83984 3.7862,2.70243 7.59654,5.37384 11.49805,7.90821 2.13575,1.39247 4.27797,2.77488 6.4082,4.17578 0.69175,0.45491 1.38212,0.91379 2.06836,1.37695 0.65949,0.4451 1.68915,1.13899 2.36914,1.67578 0.26635,0.21026 0.51781,0.43765 0.77735,0.65625 2.78038,2.34183 1.654,2.66248 -0.47461,2.65039 1.20266,1.17292 2.47045,2.27841 3.75586,3.35938 1.2179,1.00885 2.43356,2.01611 3.73046,2.92383 1.04651,0.73239 1.89038,1.24666 2.98633,1.92382 0.56314,0.34795 1.1287,0.69161 1.69336,1.03711 3.39707,2.04193 6.79275,4.08837 10.23438,6.05469 1.82184,1.04055 3.64082,2.08432 5.49414,3.06836 1.40456,0.74576 3.00055,1.55209 4.41992,2.25391 0.87251,0.43141 1.74826,0.85253 2.62305,1.27929 6.4324,3.08163 12.90063,6.10452 19.15429,9.54102 2.62046,1.49777 2.20846,1.24911 3.75782,2.17187 0.96038,0.39363 1.90667,0.82199 2.80859,1.33008 0.24984,0.14075 0.48554,0.30463 0.72852,0.45703 0.82215,0.51586 1.5042,1.05102 2.05859,1.5918 0.92704,0.18604 1.93889,0.55364 3.01172,1.13867 3.16524,1.72604 6.33094,3.45302 9.58398,5.00977 1.47461,0.68887 1.59563,0.77384 3.01563,1.34179 0.4235,0.16939 0.74954,0.29292 1.08789,0.41211 0.9912,-0.82244 2.03978,-1.5553 3.1914,-2.17578 1.11741,-0.59962 1.00588,-0.54984 2.17579,-1.13281 1.71942,-0.85687 3.47192,-1.65574 5.12109,-2.64649 1.65836,-1.03192 3.28857,-2.1047 4.93945,-3.14843 1.49348,-0.94423 2.77662,-1.73364 4.30078,-2.64258 0.79191,-0.47226 1.58992,-0.93308 2.38477,-1.40039 5.38127,-3.13357 10.7361,-6.31175 16.08398,-9.50195 1.80507,-1.06626 3.61717,-2.12316 5.41797,-3.19727 v -90.2168 c -0.22421,0.48709 -0.45183,0.97246 -0.68554,1.45508 -1.57111,3.26947 -3.24983,6.48594 -4.83985,9.7461 -1.2834,2.68729 -0.6645,1.38427 -1.95312,4.11328 -1.26911,2.68771 -2.53921,5.37717 -3.97657,7.98046 -1.36109,2.43402 -2.75827,4.84702 -4.02929,7.33008 -0.28411,0.56724 -0.5131,1.00937 -0.77149,1.57813 -0.19857,0.43709 -0.34872,0.89018 -0.52929,1.33398 -0.0514,0.12643 -0.10927,0.24997 -0.16407,0.375 -1.38966,3.17358 -2.07259,0.61501 -2.875,-1.70703 -0.73144,1.21295 -1.50576,2.40032 -2.44336,3.4668 -0.82292,0.9705 -1.65767,1.93553 -2.36718,2.99414 -1.08339,1.6558 -2.10011,3.35469 -3.21485,4.99023 -1.39567,2.16356 -2.71179,4.37756 -3.94726,6.63672 -1.5227,2.74719 -3.00375,5.52055 -4.63282,8.20703 -0.48848,0.75819 -1.0377,1.66054 -1.61914,2.35352 -0.32713,0.38988 -0.65576,0.78699 -1.05273,1.10547 -0.46394,0.37222 -0.96138,0.72085 -1.50977,0.95117 -1.21755,0.51138 -1.68913,0.36813 -2.8789,0.29883 -0.30723,-0.0694 -0.61732,-0.12663 -0.92188,-0.20703 -0.25691,-0.0678 -0.50868,-0.15533 -0.76172,-0.23633 -1.24273,-0.39798 -2.479,-0.83203 -3.64843,-1.41602 -0.24478,-0.13234 -0.493,-0.26 -0.73438,-0.39843 -0.43333,-0.24859 -0.97904,-0.62137 -1.29297,-0.86719 -1.99667,-1.56346 -2.61975,-3.33439 -2.34179,-4.68555 -0.57833,-0.57194 -1.13325,-1.16743 -1.62891,-1.81445 -0.73469,-0.93544 -1.47365,-1.87228 -2.28125,-2.7461 -0.0884,-0.0795 -0.17017,-0.16478 -0.26367,-0.23828 -0.24874,-0.19563 -0.61946,-0.42828 -0.88086,-0.59179 -0.57047,-0.35684 -1.15417,-0.69195 -1.72461,-1.04883 -1.0883,-0.68666 -2.14584,-1.41892 -3.20703,-2.14649 -1.89974,-1.3216 -3.79478,-2.65564 -5.53907,-4.18164 -0.41145,-0.36961 -0.83226,-0.72961 -1.23437,-1.10937 -2.00677,-1.89526 -3.79227,-4.0152 -5.33594,-6.30274 -0.32235,-0.46159 -0.90578,-1.29176 -1.22851,-1.77343 -0.42376,-0.63247 -0.85014,-1.28108 -1.16602,-1.97657 -0.0785,-0.17281 -0.13542,-0.35588 -0.20312,-0.5332 -0.44411,-1.1634 -0.43224,-1.72996 -0.13282,-1.92578 0.007,-0.0721 0.017,-0.143 0.0293,-0.21289 -0.26763,-0.23211 -0.53459,-0.46544 -0.80078,-0.69922 -1.46717,-1.29718 -2.92347,-2.60451 -4.40039,-3.89063 -1.48972,-1.32199 -2.97165,-2.66238 -4.28711,-4.16211 -0.87528,-1.01087 -1.73002,-2.03865 -2.55664,-3.08984 -1.15604,-1.52012 -2.25582,-3.08619 -3.16797,-4.76758 -0.22518,-0.41919 -0.44208,-0.8346 -0.6543,-1.2539 -0.20927,0.19186 -0.26511,-0.28343 -0.33203,-0.66992 -0.0295,-0.0604 -0.0605,-0.12088 -0.0898,-0.18165 -0.0325,-0.0672 -0.14325,-0.15932 -0.13672,-0.21484 v -0.002 -0.002 -0.002 -0.002 l 0.002,-0.002 0.002,-0.002 0.002,-0.002 v -0.002 -0.002 h 0.002 l 0.002,-0.002 0.006,-0.006 0.002,-0.002 v -0.002 h 0.002 0.002 c 0.10832,-0.0637 0.15909,0.16004 0.20508,0.42579 0.10984,0.22523 0.21974,0.44803 0.33203,0.66992 0.0572,-0.0524 0.12577,-0.15489 0.20899,-0.32227 0.13901,-0.27959 0.26355,-0.55532 0.375,-0.82617 -0.21023,-0.24545 -0.41788,-0.49339 -0.61914,-0.74609 -0.797,-0.99576 -1.54285,-2.03025 -2.29688,-3.0586 -0.67578,-0.9543 -1.32499,-1.92547 -1.91211,-2.9375 -0.83565,-1.36989 -1.65892,-2.74877 -2.39453,-4.17578 -0.93348,-1.80412 -1.87766,-3.60393 -2.73242,-5.44727 -0.98922,-2.20566 -1.97188,-4.4205 -2.74609,-6.71289 -0.52595,-1.64597 -0.96464,-3.31512 -1.29688,-5.01171 -0.50618,-2.52632 -1.01915,-5.05279 -1.38867,-7.60352 -0.0595,-0.50985 -0.12924,-1.02024 -0.17774,-1.53125 -0.13397,-1.40996 -0.15439,-2.82506 -0.15039,-4.24023 0.003,-1.11616 0.19521,-2.04394 0.51368,-2.78321 -0.26841,-0.93607 -0.49361,-1.88311 -0.58789,-2.85547 -0.0559,-0.63627 -0.0838,-0.83184 -0.0957,-1.47461 -0.0205,-1.10796 0.0679,-2.21721 0.29492,-3.30273 0.16498,-0.72058 0.19234,-0.88896 0.40235,-1.60547 0.31281,-1.06726 0.71881,-2.1038 1.09765,-3.14844 0.34142,-0.9667 0.67751,-1.93432 0.99219,-2.91015 0.13995,-0.43399 0.59103,-1.88675 0.73438,-2.30078 0.13819,-0.39912 0.29283,-0.7914 0.43945,-1.1875 0.16798,-0.37463 0.32351,-0.75425 0.50391,-1.12305 0.31011,-0.63397 0.68925,-1.26991 1.05859,-1.87109 0.60689,-0.98785 1.25316,-1.95122 1.91016,-2.90625 1.2265,-1.75761 2.48972,-3.49696 3.97265,-5.05079 0.0439,-0.0448 0.0855,-0.0865 0.125,-0.12695 0.0255,-0.0438 0.0529,-0.0873 0.082,-0.12891 0.55934,-0.80063 1.32724,-1.39438 2.09961,-1.97265 0.45141,-0.33796 1.50707,-1.08618 1.94532,-1.39844 2.50348,-1.73846 4.78629,-3.7646 7.09765,-5.74414 1.77666,-1.49639 3.54784,-2.99916 5.37695,-4.43164 1.07348,-0.84071 1.59422,-1.21942 2.68164,-2.03125 2.70714,-1.9935 5.44334,-3.94866 8.21485,-5.85156 1.88132,-1.23006 3.71587,-2.53857 5.6543,-3.67969 1.38349,-0.81443 1.70983,-0.94788 3.14648,-1.66992 1.85986,-0.88674 3.78483,-1.63009 5.62891,-2.55078 0.90904,-0.45386 0.99842,-0.52492 1.83593,-1.01758 0.63824,-0.38957 1.23567,-0.83751 1.77344,-1.35742 0.52623,-0.50876 0.99172,-1.06792 1.45508,-1.63282 0.14698,-0.19752 0.29565,-0.39533 0.44141,-0.59375 0.54483,-0.74161 1.08209,-1.48773 1.64648,-2.21484 0.31187,-0.4018 0.8909,-1.12245 1.21484,-1.52734 0.93914,-1.16346 1.84253,-2.35483 2.75,-3.54297 0.44667,-0.58268 0.23615,-0.30396 0.63477,-0.83203 1.36849,-1.81289 2.89641,-2.52819 4.15039,-2.47071 0.28727,0.0132 0.56113,0.066 0.81445,0.15625 0.56475,-0.35874 1.26673,-0.56529 2.05469,-0.54687 0.98657,0.0231 2.10727,0.39981 3.25586,1.27734 0.12037,0.092 0.24435,0.17919 0.36133,0.27539 0.53284,0.43842 0.99903,0.94842 1.40234,1.50782 0.72505,1.0274 1.42101,2.07349 2.07422,3.14843 0.0858,0.13641 0.41211,0.66297 0.53711,0.83594 0.37305,0.51619 0.83427,0.96095 1.30273,1.38867 1.40417,1.22926 2.86044,2.40056 4.20313,3.69922 0.64712,0.59653 0.9087,0.85038 1.58789,1.42578 0.96006,0.81334 1.95577,1.57033 2.98828,2.28906 0.39446,0.27464 0.79429,0.54179 1.19141,0.8125 2.8244,1.90117 5.65248,3.79784 8.42578,5.77344 1.12572,0.80131 1.96424,1.38679 3.0664,2.22071 1.78847,1.35313 3.52108,2.78813 5.12305,4.35937 0.32554,0.32867 0.65624,0.65062 0.97656,0.98438 0.14419,0.15022 0.28785,0.30242 0.42969,0.45507 V 216.86523 H 328.24609 c -6.7e-4,0.4119 -0.0228,0.84361 -0.0703,1.29493 -0.12902,1.2268 -0.0583,0.58744 -0.21875,1.91796 -0.14457,1.01906 -0.19966,1.4833 -0.39453,2.51954 -0.42133,2.24043 -1.03077,4.43916 -1.61523,6.64062 -1.76346,6.32891 -3.68746,12.61595 -6.01954,18.76172 -0.60489,1.64671 -0.99249,2.62591 -1.49414,4.19531 -0.1051,0.32882 -0.19376,0.66236 -0.28906,0.99414 -0.0384,0.1336 -0.0632,0.27195 -0.11133,0.40235 h -0.002 v 0.002 h -0.002 v -0.002 h -0.002 c -0.005,-0.006 -0.0129,-0.0216 -0.0176,-0.0274 l -0.002,-0.002 h -0.002 v 0.002 c -0.0102,0.0792 0,0.16034 0,0.24024 0,9.34478 -9.41605,9.34475 -9.43945,0 -0.004,-1.42329 0.36863,-2.82546 0.7832,-4.17578 0.54262,-1.7674 1.06117,-3.08972 1.71484,-4.87696 2.24548,-5.91041 4.09454,-11.95707 5.78907,-18.04492 0.52302,-1.99095 1.08868,-3.9775 1.46289,-6.00391 0.13321,-0.72139 0.19289,-1.21837 0.29297,-1.93945 0.12936,-1.09203 0.0715,-0.56283 0.17773,-1.58594 0.011,-0.10549 0.0221,-0.20965 0.0352,-0.3125 z m 129.80664,75.80274 c 2.60978,0.003 4.09428,3.15941 1.10938,6.58398 -0.35501,0.40731 -0.60942,0.71601 -1.00977,1.09571 -0.88918,0.84331 -1.92091,1.50009 -3.00781,2.05859 -0.885,0.4602 -1.27202,0.67125 -2.20508,1.11328 -2.23158,1.0572 -4.53436,1.95994 -6.88086,2.72852 -1.79461,0.58492 -2.01314,0.67062 -3.77539,1.18945 -0.47418,0.13961 -0.94939,0.27244 -1.42578,0.4043 -0.27506,0.0761 -0.55255,0.1464 -0.82812,0.2207 -0.10151,0.0273 -0.19825,0.0954 -0.30274,0.084 -0.004,-4.5e-4 -0.007,-10e-4 -0.01,-0.002 h -0.002 l -0.002,-0.002 -0.002,-0.002 v -0.002 l 0.002,-0.002 0.002,-0.002 c 0.0258,-0.0211 0.1404,-0.0631 0.1836,-0.0879 5.73484,-3.28243 -9.26552,-3.24879 -3.19532,-5.85938 0.21888,-0.0941 0.43277,-0.2006 0.65625,-0.2832 0.50937,-0.1883 1.27412,-0.37275 1.76758,-0.50977 0.44663,-0.12403 0.89331,-0.24776 1.33789,-0.37891 1.63932,-0.4836 1.85416,-0.56792 3.52344,-1.11328 2.10244,-0.6881 4.16488,-1.49552 6.16211,-2.44726 0.80665,-0.38439 1.14406,-0.56886 1.91015,-0.96875 0.48837,-0.2717 1.00524,-0.52267 1.42969,-0.89453 0.20852,-0.1827 0.44184,-0.49227 0.6211,-0.70313 1.33744,-1.57326 2.75514,-2.22211 3.9414,-2.2207 z m 71.31055,32.50781 c -0.11947,0.18566 -0.24962,0.37325 -0.39258,0.5625 -0.42554,0.56332 -0.20699,0.27724 -0.65625,0.86328 -0.93797,1.22806 -1.87317,2.4575 -2.84375,3.66016 -0.55846,0.69786 -1.11724,1.39476 -1.6543,2.10937 -1.06929,1.42285 0.0299,-0.0218 -1.08203,1.47461 -0.20823,0.28024 -0.42209,0.55563 -0.63281,0.83399 -0.55345,0.66564 -0.78261,0.96456 -1.38476,1.59375 -1.07757,1.12593 -2.2842,2.11194 -3.625,2.91015 -1.08067,0.62627 -1.1852,0.70919 -2.32813,1.27735 -1.80734,0.89843 -3.68479,1.64255 -5.51367,2.49414 -1.15735,0.57568 -1.50969,0.72638 -2.62305,1.3789 -1.84867,1.08348 -3.59264,2.3372 -5.38672,3.50586 -2.6994,1.85247 -5.36305,3.75495 -8,5.69532 -1.00249,0.74781 -1.52505,1.13044 -2.51172,1.90234 -1.76838,1.38344 -3.47973,2.83778 -5.19726,4.2832 -1.46701,1.2564 -2.92457,2.52661 -4.42774,3.74024 -0.4755,0.87185 -1.31552,1.75252 -2.58203,2.51367 -0.68551,0.41198 -1.38411,0.81908 -2.07617,1.22656 -0.42017,0.23979 -0.82499,0.50177 -1.18359,0.82813 -0.18655,0.16978 -0.47612,0.47927 -0.63672,0.64648 -1.22354,1.29907 -2.2642,2.75116 -3.28125,4.21289 -0.59617,0.86815 -1.18461,1.74215 -1.73438,2.64063 -0.29058,0.47491 -0.5773,0.94761 -0.8164,1.45117 -0.10514,0.22144 -0.19131,0.45209 -0.28711,0.67773 -0.0927,0.26179 -0.18935,0.52174 -0.27735,0.78516 -0.22468,0.67275 -0.42485,1.35427 -0.64257,2.0293 -0.3375,1.04644 -0.69675,2.08429 -1.0625,3.12109 -0.34395,0.97054 -0.73703,1.92521 -1.02149,2.91602 -0.1336,0.46534 -0.15884,0.61482 -0.26172,1.08203 -0.1825,0.89014 -0.15285,1.79894 -0.0645,2.69726 0.12917,1.03687 0.47477,2.03163 0.7832,3.02539 0.24099,0.77451 0.12369,0.39671 0.34961,1.13086 0.80091,2.60268 0.18774,4.46653 -0.94531,5.31641 0.0134,0.17658 0.0292,0.35295 0.0469,0.5293 0.0412,0.41214 0.10041,0.82124 0.15039,1.23242 0.35618,2.37376 0.83316,4.72713 1.30469,7.08008 0.28556,1.44953 0.65359,2.87976 1.10742,4.28515 0.70535,2.0544 1.5918,4.03955 2.48047,6.01953 0.80692,1.72869 1.69382,3.41931 2.57032,5.11328 0.66406,1.2879 1.40979,2.5293 2.16406,3.76563 0.50795,0.88064 1.07195,1.72436 1.66015,2.55273 0.68009,0.91697 1.33934,1.85161 2.05665,2.74024 0.19105,0.23776 0.38506,0.4736 0.58593,0.70312 1.5581,1.78026 1.90869,3.48793 1.51758,4.7168 0.57534,0.90773 1.2075,1.77803 1.85938,2.63281 0.74293,0.93714 1.50491,1.85884 2.28906,2.76172 1.12851,1.27557 2.39941,2.41112 3.67187,3.53906 1.47433,1.28366 2.92994,2.59006 4.39453,3.88477 1.26058,1.10641 2.53996,2.19101 3.81446,3.28125 1.27635,1.07513 2.45015,2.26186 3.58789,3.48047 1.03941,1.1136 1.89998,2.37299 2.80469,3.59375 0.21154,0.2836 0.43229,0.56029 0.6582,0.83203 1.02993,0.75352 2.01214,1.56619 2.89844,2.49414 0.54422,0.61801 1.03037,1.10501 1.44336,1.82617 0.2286,0.39917 0.53189,0.79148 0.58789,1.24805 0.0832,0.67867 0.33207,1.4995 0.18554,2.14844 0.64985,0.4457 1.30054,0.88818 1.96875,1.30664 0.95751,0.60983 1.97425,1.13623 2.88086,1.82422 0.24775,0.188 0.48359,0.39327 0.72461,0.58984 0.23103,0.22433 0.47082,0.43911 0.69336,0.67187 0.34876,0.3648 0.85714,0.97585 1.18945,1.375 0.46297,0.55608 0.91041,1.12252 1.35743,1.69141 0.41151,0.54239 0.8887,1.02446 1.38281,1.49024 1.58389,1.49302 2.14175,3.02274 2.00781,4.24023 0.16138,0.0919 0.32683,0.17852 0.49219,0.26367 0.83763,0.39198 1.71749,0.6889 2.59765,0.96875 0.0135,0.004 0.0263,0.008 0.0391,0.0117 0.13618,-0.21049 0.28119,-0.41552 0.42187,-0.62305 0.1931,-0.30422 0.38698,-0.60789 0.58008,-0.91211 1.5458,-2.57212 2.96159,-5.21963 4.41602,-7.84375 1.30567,-2.3891 2.70015,-4.72675 4.17382,-7.01562 1.12068,-1.6487 2.1488,-3.35654 3.23829,-5.02539 0.85481,-1.29497 1.86174,-2.47843 2.86328,-3.66016 1.057,-1.20537 1.83445,-2.61663 2.64257,-3.99219 0.67239,-1.15831 0.34172,-0.59079 0.99219,-1.70312 1.25087,-2.13901 2.84435,-3.00094 4.16992,-2.94336 0.24282,0.0106 0.47611,0.0529 0.69727,0.12305 0.5246,-0.9343 1.05332,-1.8676 1.57617,-2.80274 1.36108,-2.47045 2.56408,-5.02293 3.76758,-7.57226 1.26796,-2.68588 0.69401,-1.47948 1.96484,-4.14063 1.58877,-3.26647 3.27514,-6.48532 4.84766,-9.75976 0.67662,-1.39807 1.299,-2.82036 1.94531,-4.23243 0.22608,-0.50876 0.52413,-0.97796 0.82617,-1.44335 1.21076,-1.86566 2.67097,-2.66467 3.92969,-2.70118 V 358.4785 c -1.03571,-0.27585 -2.15582,-1.06384 -3.15234,-2.50977 -0.85897,-1.24635 -1.92574,-2.32777 -2.99024,-3.39648 -2.23329,-2.19621 -4.77854,-4.03333 -7.32422,-5.84375 -2.72631,-1.94198 -5.50475,-3.80693 -8.28124,-5.67579 -1.6255,-1.07155 -3.19679,-2.22334 -4.68555,-3.47851 -0.81677,-0.68862 -1.10001,-0.9604 -1.875,-1.67188 -1.30333,-1.25757 -2.71261,-2.39631 -4.07617,-3.58593 -0.75836,-0.68463 -1.48957,-1.40986 -2.10743,-2.22657 -0.42173,-0.55746 -0.59917,-0.86154 -0.97265,-1.44531 -0.59583,-0.98356 -1.23365,-1.93972 -1.89649,-2.87891 -0.06,-0.0735 -0.13072,-0.16952 -0.20312,-0.23632 -0.0201,-0.0186 -0.056,-0.0233 -0.0801,-0.0352 -0.20642,-0.10205 -0.40085,-0.20836 -0.58203,-0.31836 z M 497.9707,466.9375 c 0.17212,0.21684 0.16084,0.20792 0.0508,0.0332 -0.0171,-0.0108 -0.034,-0.0225 -0.0508,-0.0332 z m 17.19532,17.87695 c 0.10737,0.0319 0.15721,0.0362 0.44726,0.084 -0.0397,-0.0234 -0.0733,-0.0653 -0.11914,-0.0703 -0.10913,-0.0112 -0.21815,-0.0155 -0.32812,-0.0137 z m 42.5664,44.58594 c -0.20509,0.12104 -0.41018,0.24216 -0.61523,0.36328 -5.36465,3.20038 -10.73853,6.38576 -16.13672,9.5293 -0.78346,0.46065 -1.56905,0.91725 -2.34961,1.38281 -1.43949,0.85855 -2.67549,1.61733 -4.08594,2.50977 -5.22468,3.30582 1.55438,-0.95632 -3.35351,2.16211 -0.52863,0.33589 -1.06224,0.66281 -1.59375,0.99414 -2.51637,1.52697 -5.23033,2.68137 -7.81641,4.07812 -0.54541,0.29432 -1.05203,0.64209 -1.5293,1.0293 h 37.48047 z" />
    </clipPath>
    <clipPath
       clipPathUnits="userSpaceOnUse"
       id="clipPath16">
      <path
         id="path17"
         style="fill:#ff0000;fill-opacity:1;fill-rule:nonzero;stroke:none"
         d="m 697.95508,216.85352 -165.41797,0.002 c 2.14215,7.86696 -6.34924,14.18486 -17.72852,6.875 -2.9448,-1.8917 -1.43398,-0.90071 -4.52539,-2.98242 -1.96817,-1.40122 -3.35759,-2.32854 -5.20117,-3.89258 h -2.09961 v 48.42773 c 3.00402,-1.53834 7.64611,-7.31581 9.75,-7.31836 0.63393,-7.6e-4 1.03846,0.52371 1.09766,1.84571 0.23328,-0.12876 0.4674,-0.25619 0.70312,-0.38086 1.47015,-0.72953 2.99275,-1.36914 4.57422,-1.81641 0.3993,-0.11294 0.80481,-0.20458 1.20703,-0.30664 1.84331,-0.41153 3.717,-0.65586 5.59766,-0.80859 0.81623,-0.0399 1.65924,-0.0617 2.49805,-0.0254 0.8388,0.0363 1.67294,0.13047 2.47265,0.32226 0.48797,0.11702 0.96497,0.27743 1.44727,0.41602 2.2826,0.87866 3.99476,2.28603 5.6582,4.02344 0.81515,0.88315 1.52373,1.86125 2.34961,2.73437 0.60502,0.59612 1.17074,1.23483 1.80273,1.80273 0.68252,0.61032 1.40923,1.16511 2.17383,1.66797 1.16103,0.73708 2.32421,1.46898 3.49805,2.18555 1.40038,0.82833 2.76363,1.71644 4.19336,2.49414 1.58785,0.81972 3.18359,1.62447 4.75586,2.47461 1.45366,0.75513 2.81952,1.6578 4.17187,2.57813 1.07032,0.71384 2.05778,1.53924 3.07618,2.32226 1.09276,0.8384 2.17035,1.69413 3.25195,2.54688 1.06756,0.85595 2.14823,1.69723 3.22851,2.5371 0.9137,0.67398 1.83466,1.33628 2.79688,1.93946 1.05109,0.68147 2.13488,1.30875 3.20508,1.95898 0.5954,0.36996 1.20186,0.72027 1.83398,1.02344 6.79409,3.25859 7.845,8.58082 5.32422,11.54297 0.567,0.23844 1.1328,0.48006 1.70117,0.71484 0.62328,0.24093 1.25361,0.46317 1.88672,0.67578 0.67685,0.20057 1.34789,0.41913 2.02734,0.61133 1.11303,0.30138 2.25043,0.49238 3.36719,0.77735 1.09562,0.30417 2.18088,0.64064 3.29102,0.88867 0.94795,0.18242 1.90698,0.30417 2.85547,0.48437 0.78703,0.15444 1.5524,0.39788 2.32422,0.61328 1.11044,0.30636 2.24056,0.53647 3.36523,0.78321 0.84806,0.18975 1.6988,0.36571 2.55078,0.53711 -0.38035,-0.79057 0.36214,-1.68271 1.82422,-1.26368 0.43102,0.12353 0.86216,0.24915 1.28711,0.39258 0.74362,0.23445 1.49732,0.43046 2.24414,0.6543 0.506,0.16438 1.00123,0.35901 1.49805,0.54883 0.53715,0.19543 1.09421,0.32296 1.65234,0.44336 0.0908,0.0193 0.18236,0.0374 0.27344,0.0547 0.12898,-0.51822 0.75384,-0.93236 1.79492,-0.75781 1.62896,0.27312 3.24685,0.61103 4.86719,0.93164 0.11637,-0.44386 0.58621,-0.86676 1.44922,-0.99414 0.56514,-0.0834 0.26888,-0.0428 0.88476,-0.12109 0.45111,-0.0407 0.77299,-0.0807 1.23438,-0.0664 0.92191,0.0285 1.78773,0.29896 2.65039,0.60352 1.3655,0.44595 2.73622,0.91306 4.16406,1.11328 0.96481,0.14313 1.9318,0.27135 2.90234,0.36523 -0.2591,-4.27717 4.05562,-8.46755 12.42774,-7.59375 0.71424,0.0745 1.42842,0.15035 2.13867,0.25782 1.65761,0.25683 3.313,0.5372 4.9375,0.96093 1.14083,0.30327 2.27378,0.63982 3.42383,0.90821 2.22496,0.57592 4.43425,1.2272 6.58008,2.05468 0.44154,0.19201 0.88794,0.37263 1.32421,0.57618 1.58277,0.73841 3.05309,1.70267 4.4668,2.7207 1.20414,0.89361 2.37687,1.83023 3.60742,2.6875 1.49665,0.96296 3.10298,1.74415 4.63477,2.64844 2.55209,1.43503 5.09874,2.92601 7.19336,5.0039 0.61481,0.61114 1.22024,1.22849 1.81055,1.86328 0.14628,0.1573 0.30185,0.3061 0.4375,0.47266 v 0.008 0.004 c 0.44647,0.39412 0.9364,0.73888 1.4375,1.05859 1.04916,0.67962 2.18879,1.21233 3.23828,1.89258 0.8383,0.53892 1.07377,0.66864 1.89648,1.29297 1.05024,0.79698 2.01815,1.70634 2.93164,2.6543 1.09487,1.2165 2.14416,2.48497 2.89649,3.94921 0.0215,0.0393 0.043,0.0779 0.0644,0.11719 0.14961,-0.0236 0.29967,-0.0482 0.44922,-0.0723 0.78612,-1.21223 1.55466,-2.43453 2.31054,-3.66602 0.37537,-0.59836 0.74284,-1.20214 1.11133,-1.80469 0.0557,-0.091 0.1061,-0.18597 0.16993,-0.27148 h 0.002 v -0.002 h 0.002 0.002 c 0.006,-2.2e-4 0.0175,0.002 0.0234,0.002 h 0.002 0.002 v -0.002 h 0.002 0.002 v -0.002 l 0.002,-0.002 c 0.0549,-0.10397 0.0907,-0.21604 0.13672,-0.32422 0.68716,-1.93311 1.22672,-3.91472 1.74609,-5.89844 0.98445,-3.98027 1.83518,-8.00622 2.02734,-12.11523 0.11059,-2.47533 0.15512,-3.27555 0.22852,-5.81445 0.14006,-4.84416 0.16696,-9.69224 0.35547,-14.53516 0.16163,-4.0557 0.31342,-8.11946 0.90625,-12.14062 v -0.002 c 0.58533,-3.97033 2.03019,-6.83381 3.82031,-8.63086 -1.87045,-5.24603 -3.6273,-10.53224 -5.22656,-15.86718 -0.90327,-3.2018 -1.70352,-6.44214 -2.1543,-9.74219 -0.26491,-1.93926 -0.27426,-2.54298 -0.40625,-4.46485 -0.0634,-1.81589 -0.14259,-3.64459 -0.0664,-5.46484 -0.89891,-2.51949 -1.86945,-5.01201 -3.04687,-7.41797 -0.77846,-1.46976 -0.99798,-1.93813 -1.65234,-3.01367 -1.33603,-1.48192 -2.66535,-2.96954 -3.98633,-4.46484 z m 33.5957,0.002 c 1.21874,3.03803 2.40311,6.08961 3.5332,9.16211 1.3164,3.65774 2.62319,7.31708 3.88282,10.99414 1.58784,2.89629 3.00532,5.89204 4.19726,8.9707 2.70139,1.39836 4.95977,4.84355 5.31055,10.43164 0.0852,1.35707 0.0446,0.64635 0.12109,2.13672 0.12078,3.85297 -0.0583,7.70982 -0.54882,11.53516 -0.3565,2.61345 -0.38859,3.03177 -0.85352,5.68359 -0.82315,4.69505 -1.87943,9.3487 -3.00781,13.97852 -1.07583,4.16445 -2.15254,8.32693 -3.41016,12.4414 -0.8556,2.79918 -1.3393,4.18917 -2.29687,6.84766 -0.2804,0.77848 -0.57285,1.55188 -0.85938,2.32812 -0.52464,1.50047 -0.59895,1.6716 -1.0332,3.04493 -0.0764,0.24164 -0.14575,0.48583 -0.21875,0.72851 -0.0261,0.0866 -0.0531,0.17277 -0.0781,0.25977 -0.008,0.0268 -0.0199,0.0945 -0.0254,0.11133 v 0.002 0.002 h -0.002 c -1.8e-4,-0.001 6e-5,-0.005 0,-0.008 -0.006,-0.17894 0.009,-0.35814 0.0137,-0.53711 0.056,-2.17197 -0.22347,-3.43366 -0.74219,-4.03906 -0.22777,0.28138 -0.45812,0.55165 -0.69336,0.81054 1.00334,2.52409 0.90841,6.0723 -1.05078,10.29102 -0.37431,0.806 -0.75349,1.60812 -1.14844,2.4043 -1.34807,2.75968 -2.81556,5.46143 -4.375,8.10742 -0.322,0.52627 -0.63672,1.05561 -0.96484,1.57812 -0.79756,1.27004 -1.66238,2.50082 -2.4082,3.80274 -0.86144,1.773 -1.74005,3.53747 -2.625,5.29883 -2.25917,4.40145 -4.57477,8.77659 -7.03711,13.06836 -0.13639,0.23717 -0.27337,0.47398 -0.41016,0.71093 0.25644,0.5864 0.49902,1.17874 0.71094,1.78321 0.59453,1.65449 1.18845,3.30983 1.71289,4.98828 0.61506,1.97042 1.19685,3.96181 1.37891,6.02734 0.0881,0.96806 0.12526,1.93753 0.17383,2.9082 0.10787,1.80282 0.2464,3.60338 0.35351,5.40625 0.14709,2.93601 0.27271,5.87377 0.5332,8.80274 0.29733,3.63621 0.52181,7.28183 0.32618,10.93164 -0.17463,2.91461 -0.36046,5.85449 -1.14454,8.68164 -0.15828,0.57071 -0.31822,1.07022 -0.48046,1.50391 -0.0537,0.41959 -0.12164,0.84881 -0.20508,1.28906 -0.19532,1.03053 -0.0941,0.49997 -0.30274,1.58789 -0.14859,0.78097 -0.30257,1.62115 -0.47461,2.39258 -0.48523,2.17572 -1.13263,4.31464 -1.90234,6.40625 -0.50122,1.31478 -1.02074,2.62535 -1.57812,3.91797 2.64436,2.49743 3.40156,7.46898 -0.28907,13.3457 -0.45339,0.72195 -0.72918,1.19814 -1.26367,1.88672 -0.99165,1.27757 -2.12722,2.43172 -3.47266,3.33984 -0.40588,0.25919 -0.80173,0.53311 -1.21679,0.77735 -2.17798,1.28165 -4.5864,2.12912 -7.0625,2.60742 -1.3248,0.21381 -1.79517,0.31251 -3.17774,0.4375 -2.69339,0.24351 -5.41438,0.211 -8.10351,-0.0605 -1.8175,-0.26538 -2.179,-0.27811 -3.94141,-0.69141 -2.22074,-0.52078 -4.36728,-1.29764 -6.51172,-2.06445 0.0678,2.18787 -1.08395,3.13819 -5.06054,1.14844 -1.09788,-0.54934 -0.53928,-0.24442 -1.66993,-0.92188 -0.33424,-0.24552 -0.67771,-0.47966 -1.00195,-0.73828 -1.25283,-0.99916 -2.27092,-2.26579 -3.14453,-3.59961 -6.75748,-3.18886 -8.15009,-8.68781 -5.64258,-12.09961 -0.0942,-0.22934 -0.19232,-0.4562 -0.29687,-0.68164 -0.34248,-0.85161 -0.49921,-1.20739 -0.75,-1.95507 -0.7804,1.84881 -1.55799,3.6993 -2.33203,5.55078 -0.48339,1.16167 -0.94081,2.2367 -1.39258,3.40429 -1.0269,2.65398 -0.38658,1.01811 -0.31836,0.91016 l 0.002,-0.002 v -0.002 h 0.002 0.002 c -8.3e-4,0.0292 -0.096,0.30798 -0.39453,1.1211 v 0.002 l -0.002,0.002 h -0.002 l -0.002,-0.002 c -0.005,-0.0117 -0.009,-0.0439 -0.0137,-0.0566 0.0324,-0.42067 0.0654,-0.84105 0.0977,-1.26172 0.44368,-5.76817 -1.86115,-5.10424 -4.83984,-2.79297 4.27222,1.34224 6.52051,7.18941 1.97656,14.64258 -0.91966,1.50846 -1.85041,3.00912 -2.86719,4.45508 -1.17485,1.67079 -1.56742,2.25246 -2.82617,3.9375 -2.60889,3.49239 -5.35802,6.87856 -8.17187,10.20703 -5.40612,6.2749 -10.90344,12.48603 -16.85157,18.25781 -0.94831,0.90946 -1.88852,1.82633 -2.84375,2.72852 -2.81911,2.66256 -5.73854,5.21684 -8.51953,7.91992 -1.42073,1.32851 -2.84482,2.66133 -4.42578,3.80078 -0.90089,0.64931 -1.78825,1.1898 -2.6543,1.62891 -0.10295,0.15802 -0.20944,0.31695 -0.32226,0.48047 -1.15934,1.68015 -2.52665,3.21324 -4.12696,4.48632 -1.17899,0.88994 -1.24989,0.97862 -2.49023,1.77735 -1.45842,0.93917 -3.01486,1.71934 -4.42773,2.73047 -0.3648,0.28825 -0.74345,0.55951 -1.09375,0.86523 -1.04864,0.91521 -1.75744,1.70631 -2.71485,2.74805 -1.49966,1.63176 -2.16191,2.45721 -3.79101,4.02929 -0.72702,0.70158 -1.49616,1.35987 -2.24414,2.03907 -0.80164,0.64267 -1.58677,1.3054 -2.4043,1.92773 -2.76959,2.1083 -5.70331,3.98067 -8.64453,5.83985 h 4.62304 4.67774 c 2.48836,-10e-6 4.97648,4e-5 7.46484,0 2.56926,-4e-5 5.13777,-0.002 7.70703,-0.002 3.00901,-10e-4 6.01835,5e-5 9.02735,-0.002 3.91042,-0.003 7.82202,-0.005 11.73242,-0.0176 5.76697,-0.0184 11.53407,-0.04 17.30078,-0.0996 6.26749,-0.0757 12.53413,-0.19995 18.79883,-0.40625 10.66473,-0.30173 21.33051,-0.45113 32,-0.36133 h 20.21289 c 2.92705,-0.45539 5.87437,-0.75134 8.8418,-0.52929 0.23697,0.0208 0.47215,0.0427 0.70898,0.0644 1.83994,-1.48249 2.22371,-1.86292 4.31641,-3.23242 0.74927,-0.49033 1.53288,-0.92874 2.29882,-1.39258 1.01298,-0.54886 2.03012,-1.08858 3.05665,-1.61133 -0.63394,-3.45737 -0.50251,-6.40261 0.16796,-10.43555 0.30774,-1.85104 1.00604,-3.6192 1.625,-5.39062 0.96253,-2.75469 2.56521,-6.1448 3.77539,-8.81641 2.30857,-5.00083 4.88656,-9.87973 6.9961,-14.9707 1.22013,-2.76424 2.36134,-5.68851 4.3418,-8.02734 1.09498,-1.29312 1.9481,-3.1638 3.58398,-3.60547 6.25597,-1.68904 12.84621,-1.70948 19.26953,-2.56446 1.16502,1.22283 2.40368,2.38551 3.64258,3.54883 v -251.0272 z m -203.93164,53.09765 v 0.002 c -0.21274,-0.009 -0.42749,-0.004 -0.64062,0.008 -1.15911,0.0883 -2.3123,0.23608 -3.45313,0.46289 -0.94513,0.21011 -1.8548,0.53457 -2.72266,0.9668 -1.4289,0.73605 -2.76244,1.63666 -4.14648,2.45117 -2.40643,1.39995 -4.80381,2.81578 -7.25781,4.13086 0.22106,0.55938 0.4092,1.17777 0.55859,1.85742 0.93989,4.27613 1.86746,8.55569 2.7793,12.83789 0.57546,2.8146 1.26492,5.60452 1.94726,8.39453 0.0633,0.26568 0.12816,0.53073 0.18946,0.79688 0.17276,0.74972 0.14023,0.69779 0.33007,1.3789 0.26491,0.95016 0.5947,1.87458 0.92774,2.80274 0.38128,1.06202 0.77606,2.12006 1.17383,3.17578 0.29148,0.33068 0.57896,0.66299 0.86719,0.99609 0.98329,1.22419 2.11901,2.31495 3.15234,3.49414 0.28513,0.32538 0.55727,0.66127 0.83594,0.99219 1.33198,1.62215 2.31903,3.47547 3.09179,5.41992 0.003,0.009 0.006,0.0168 0.01,0.0254 1.73366,0.78902 3.37709,1.75069 4.74023,3.12305 0.2227,0.24945 0.4536,0.4914 0.66797,0.74805 0.78106,0.93515 1.39524,1.99443 2.00391,3.04492 0.35946,0.62774 0.72063,1.25606 1.10547,1.86914 0.4092,0.32081 0.8145,0.64658 1.22265,0.96875 1.3276,1.09667 1.97804,1.61505 3.29688,2.7832 2.56543,2.27229 4.98497,4.69992 7.41601,7.11329 1.24696,1.16273 1.65901,1.57309 2.6211,2.39453 0.57247,0.22589 1.15237,0.42967 1.74023,0.61328 2.96394,0.90519 5.98153,1.71008 8.78906,3.04492 0.41401,0.22586 0.83742,0.4357 1.24219,0.67773 1.63943,0.98031 3.01663,2.29622 4.08594,3.87696 1.36906,1.96598 2.63251,4.00047 3.85156,6.0625 0.55367,0.92389 1.11289,1.84421 1.6543,2.77539 0.21363,0.36742 0.66937,1.16292 0.84375,1.54687 0.16698,0.36768 0.30528,0.74882 0.45703,1.12305 h -0.002 c 0.72483,1.78748 0.80421,2.77149 0.44726,3.2207 0.0389,0.0731 0.0771,0.14719 0.11524,0.22071 0.81682,1.60751 1.66039,3.20602 2.35156,4.87304 0.37346,0.99924 0.5333,1.32651 0.76562,2.39844 0.30415,1.40326 0.27691,2.84787 0.0566,4.25977 -0.36694,2.42374 -0.77954,4.83993 -1.23829,7.24804 -0.19263,0.93064 -0.37143,1.84973 -0.60351,2.77149 -0.40405,1.60479 -0.95567,3.17026 -1.5957,4.69531 -0.15973,0.35027 -0.31234,0.70354 -0.47852,1.05078 -0.62545,1.30692 -1.37098,2.55147 -2.01758,3.84766 -0.52509,1.00273 -0.26101,0.50987 -0.67187,1.2539 -0.0439,0.0795 -0.0877,0.16034 -0.13086,0.24024 -0.025,0.0462 -0.0372,0.0997 -0.0723,0.13867 h -0.002 v 0.002 h -0.002 v -0.002 c -8.6e-4,-0.0105 0.005,-0.0448 0.008,-0.0586 -0.031,0.078 -0.0529,0.16021 -0.0781,0.24023 -0.29169,1.04576 -0.53328,2.10566 -0.80664,3.15625 -0.30742,1.20802 -0.6524,2.40387 -1.06054,3.58203 -0.39258,1.1359 -0.79278,2.26903 -1.20899,3.39649 -0.39207,1.05333 -0.81804,2.09314 -1.18359,3.15625 -0.29295,0.85651 -0.57292,1.71709 -0.83399,2.58398 -0.55282,1.65375 -1.10963,3.30644 -1.66601,4.95898 -0.63566,1.96086 -1.23148,3.93345 -1.6543,5.95313 -0.54622,2.27814 -1.14824,4.54565 -1.90625,6.76367 -0.85359,2.40515 -1.82919,4.76317 -2.86914,7.09375 -1.01726,2.28664 -2.05378,4.56635 -3.00195,6.88281 -0.63827,1.54444 -1.32058,3.07031 -1.99414,4.59961 -0.83946,1.89758 -1.65949,3.80281 -2.47461,5.71094 -0.29493,0.70623 -0.59161,1.41209 -0.86524,2.12695 -0.10176,0.26587 -0.16574,0.5471 -0.29492,0.80078 v 0.002 l -0.002,0.002 -0.002,0.002 v 0.002 h -0.002 v -0.002 -0.002 c 10e-4,-0.0174 0.0177,-0.0843 0.0215,-0.11133 0.80106,-5.41888 -2.34955,-3.82444 -5.60547,-1.77734 -0.32144,0.4176 -0.65959,0.82362 -1.00782,1.21875 -0.15043,0.16583 -0.29909,0.33373 -0.45117,0.49805 -0.12439,0.13441 -0.25276,0.26566 -0.3789,0.39843 -0.14568,0.15332 -0.29685,0.30054 -0.41797,0.47461 -0.11469,0.16483 -0.23796,0.26927 -0.35743,0.32422 -0.0314,0.0552 -0.0639,0.10989 -0.0977,0.16406 -0.0979,0.15918 -0.20358,0.31306 -0.30078,0.47266 -0.12757,0.21571 -0.25694,0.43095 -0.38477,0.64648 -0.12903,0.21392 -0.26265,0.42572 -0.38672,0.64258 -0.123,0.21172 -0.24501,0.42291 -0.37109,0.63282 -0.15276,0.25907 -0.30426,0.51985 -0.46289,0.77539 -0.15295,0.24289 -0.30629,0.4873 -0.48438,0.71289 -0.1011,0.12683 -0.20392,0.25031 -0.29492,0.38476 -0.10891,0.15759 -0.2196,0.31479 -0.32812,0.47266 -0.15685,0.21542 -0.31591,0.43048 -0.47461,0.64453 -0.1495,0.19815 -0.30188,0.39437 -0.4668,0.58008 -0.15762,0.18125 -0.31668,0.35981 -0.47656,0.53906 -0.18239,0.21797 -0.36385,0.43655 -0.54883,0.65234 -0.22695,0.26608 -0.4616,0.52619 -0.71875,0.76368 -0.24228,0.23279 -0.48564,0.46795 -0.68164,0.74218 -0.24301,0.336 -0.46881,0.68334 -0.69727,1.0293 -0.31032,0.44886 -0.63198,0.8931 -0.99804,1.29883 -0.10831,0.12316 -0.21653,0.24564 -0.32618,0.36719 0.0849,0.0404 0.062,0.0881 -0.01,0.25 -0.10415,0.22552 -0.20431,0.45306 -0.32227,0.67187 -0.18697,0.34795 -0.38581,0.69095 -0.60547,1.01953 -0.30678,0.47363 -0.61004,0.94892 -0.92968,1.41407 -0.39983,0.5602 -0.81792,1.10653 -1.26172,1.63281 -0.2069,0.23969 -0.28605,0.33469 -0.50391,0.57031 -0.39395,0.42606 -0.8121,0.82925 -1.24023,1.2207 -0.11736,0.10491 -0.23351,0.21033 -0.35156,0.31446 -0.57901,0.51078 -1.17281,1.00462 -1.73243,1.53711 -0.25112,0.23677 -0.50126,0.47577 -0.7539,0.71093 -0.12371,0.11515 -0.20352,0.18411 -0.32031,0.30078 -0.0373,0.0372 -0.073,0.0752 -0.10938,0.11329 -0.0614,0.0693 -0.12624,0.13575 -0.14844,0.22265 -0.11317,0.44353 -0.23861,0.18971 -0.3789,-0.10937 -0.0434,0.1177 -0.12506,0.24295 -0.25391,0.36718 -0.0162,0.0157 -0.0325,0.0312 -0.0488,0.0469 -0.11622,0.11759 -0.23099,0.23847 -0.34375,0.35937 -0.0959,0.0986 -0.19561,0.19182 -0.29101,0.29102 -0.1392,0.14179 -0.27213,0.28899 -0.40625,0.43555 -0.14776,0.1485 -0.30412,0.28853 -0.45703,0.43164 -0.22582,0.21435 -0.44652,0.43475 -0.63477,0.68359 -0.23018,0.31555 -0.45724,0.63466 -0.69922,0.94141 -0.21741,0.28236 -0.43759,0.56283 -0.64648,0.85156 -0.16504,0.25755 -0.30227,0.53069 -0.44532,0.80078 -0.18629,0.33517 -0.38966,0.66418 -0.66211,0.9375 -0.30438,0.2998 -0.61732,0.59464 -0.98242,0.82031 -0.0903,0.0543 -0.18118,0.10771 -0.27148,0.16211 -0.0302,0.0182 -0.0596,0.0365 -0.0898,0.0547 -0.0113,0.007 -0.0226,0.0155 -0.0352,0.0195 v -0.002 -0.002 -0.002 h -0.002 v 0.002 l -0.002,0.002 -0.002,0.002 -0.002,0.002 c -0.66461,0.70892 -1.36821,0.18949 -0.78516,-0.58789 0.10377,-0.13835 0.25116,-0.23151 0.39648,-0.32031 0.0946,-0.0578 0.19211,-0.11467 0.28711,-0.17187 0.29719,-0.18758 0.54984,-0.432 0.79883,-0.67774 0.20354,-0.2087 0.35212,-0.46137 0.49219,-0.71484 0.12844,-0.23772 0.24827,-0.47985 0.38867,-0.71094 0.0287,-0.0471 0.0584,-0.094 0.0879,-0.14062 0.22219,-0.31511 0.46208,-0.61642 0.69727,-0.92188 0.23677,-0.30005 0.45842,-0.61318 0.68359,-0.92187 0.22224,-0.29736 0.48363,-0.56104 0.75195,-0.81641 0.14479,-0.13757 0.29523,-0.2699 0.43555,-0.41211 0.13131,-0.14654 0.26472,-0.291 0.40234,-0.43164 0.0942,-0.0985 0.19407,-0.19136 0.28907,-0.28906 0.11414,-0.12301 0.22982,-0.2438 0.34765,-0.36328 0.0216,-0.0209 0.0429,-0.0415 0.0645,-0.0625 0.19612,-0.19035 0.39106,-0.27253 0.55468,-0.27539 0.0164,-2.8e-4 0.0331,1.4e-4 0.0488,0.002 0.0369,-0.0475 0.0766,-0.0925 0.11524,-0.13867 0.0479,-0.0508 0.0935,-0.10265 0.14257,-0.15235 0.13448,-0.1361 0.22563,-0.21384 0.36719,-0.3457 0.25018,-0.233 0.49736,-0.47055 0.7461,-0.70508 0.0917,-0.0873 0.18395,-0.1723 0.27734,-0.25781 -0.27925,-0.14461 -0.32148,-0.57797 0.14844,-0.94141 0.18179,-0.14059 0.36991,-0.27235 0.54297,-0.42382 0.0773,-0.0699 0.1165,-0.10414 0.1914,-0.17774 0.15328,-0.15052 0.2934,-0.3155 0.4375,-0.47461 0.13164,-0.14455 0.26393,-0.28762 0.40235,-0.42578 0.0628,-0.0627 0.128,-0.12355 0.1914,-0.18555 0.0295,-0.0288 0.0586,-0.0569 0.0879,-0.0859 0.17269,-0.17441 0.34178,-0.35475 0.48242,-0.55665 0.0367,-0.0538 0.0833,-0.12073 0.11719,-0.17773 0.0812,-0.13674 0.14421,-0.28461 0.22461,-0.42187 0.12287,-0.22488 0.25603,-0.44319 0.41797,-0.64258 0.0706,-0.0877 0.10424,-0.1319 0.18164,-0.2168 0.14131,-0.15516 0.29913,-0.29335 0.46484,-0.42187 0.17357,-0.13492 0.35277,-0.26391 0.51368,-0.41407 0.27409,-0.27382 0.53852,-0.55622 0.80859,-0.83398 0.18251,-0.1887 0.36801,-0.376 0.55078,-0.56445 0.0786,-0.0811 0.24557,-0.2527 0.32227,-0.3418 l 0.002,-0.002 0.002,-0.002 0.002,-0.002 v -0.002 l 0.002,-0.002 c -0.0586,-0.18679 0.004,-0.44654 0.25976,-0.70703 0.20538,-0.20888 0.3965,-0.43045 0.58985,-0.65039 0.34081,-0.37712 0.63928,-0.7894 0.92773,-1.20703 0.23156,-0.35223 0.46208,-0.70519 0.70899,-1.04687 0.22966,-0.32239 0.51068,-0.60328 0.79492,-0.87696 0.2337,-0.21509 0.44862,-0.44978 0.6543,-0.6914 0.18303,-0.21356 0.36252,-0.42881 0.54297,-0.64454 0.16339,-0.1845 0.32654,-0.3687 0.48828,-0.55468 0.15005,-0.16849 0.28807,-0.34733 0.42382,-0.52735 0.15534,-0.20965 0.30929,-0.41991 0.4629,-0.63086 0.10359,-0.15147 0.21012,-0.30019 0.31445,-0.45117 0.10341,-0.15307 0.22092,-0.2971 0.33594,-0.4414 0.15474,-0.19765 0.28832,-0.4109 0.42187,-0.62305 0.15343,-0.24754 0.2994,-0.49915 0.44727,-0.75 0.12499,-0.2081 0.24724,-0.41705 0.36914,-0.62695 0.12666,-0.22159 0.26276,-0.43772 0.39453,-0.65625 0.12637,-0.21314 0.25278,-0.42734 0.3789,-0.64063 0.0983,-0.16514 0.21026,-0.32046 0.31055,-0.48437 0.0444,-0.0713 0.0841,-0.14545 0.125,-0.21875 0.12808,-0.22958 0.28351,-0.36348 0.43359,-0.41797 0.0306,-0.0409 0.0628,-0.0802 0.0957,-0.11914 -2.44351,1.41363 -4.16318,1.77661 -3.00195,-2.58789 0.43928,-1.65114 1.11708,-3.22704 1.77343,-4.80079 0.84537,-1.98389 1.69931,-3.96471 2.57031,-5.9375 0.62964,-1.44002 1.28218,-2.87013 1.87891,-4.32421 0.98892,-2.41756 2.06738,-4.79737 3.12891,-7.1836 0.8994,-2.04672 1.78591,-4.10401 2.51953,-6.2168 0.6162,-1.83413 1.11457,-3.70391 1.56055,-5.58593 0.49424,-2.3206 1.1774,-4.59193 1.90625,-6.84766 0.56712,-1.68873 1.13649,-3.37682 1.70117,-5.06641 0.26523,-0.89415 0.55758,-1.77975 0.85937,-2.6621 0.39199,-1.16246 0.86118,-2.2954 1.28711,-3.44532 0.38501,-1.04296 0.75417,-2.09178 1.11719,-3.14258 0.30532,-0.86507 0.55428,-1.74414 0.7793,-2.63281 0.28448,-1.12316 0.55829,-2.25079 0.86132,-3.36914 0.37533,-1.48734 1.16741,-2.80464 1.86719,-4.15234 0.72404,-1.4327 1.55363,-2.81211 2.19922,-4.28321 0.70413,-1.60226 1.05426,-3.30749 1.4043,-5.01171 0.41459,-2.20339 0.79215,-4.41397 1.12695,-6.63086 -0.2139,1.11643 0.10088,-0.56615 0.0703,-0.67774 v -0.002 h -0.002 v -0.002 h -0.002 -0.002 -0.002 v 0.002 c -9.4e-4,10e-4 -0.002,0.002 -0.004,0.004 l -0.002,0.002 -0.002,0.002 v 0.002 c -0.0434,0.0846 -0.01,0.19612 -0.0527,0.28126 -0.005,0.0109 -0.0129,0.0356 -0.0195,0.0449 v 0.002 h -0.002 v 0.002 h -0.002 -0.002 v -0.002 h -0.002 v -0.002 c -0.0556,-0.0832 -0.0834,-0.18049 -0.125,-0.27149 -0.574,-1.29673 -1.23475,-2.55455 -1.87695,-3.81836 -0.21647,-0.40376 -0.44748,-0.79971 -0.68164,-1.19336 -1.31656,-2.21332 -1.8472,-4.23074 -1.8086,-5.92382 -0.20973,-0.35023 -0.41911,-0.70074 -0.6289,-1.05079 -1.08488,-1.82209 -2.1858,-3.63459 -3.4043,-5.37109 -0.0565,-0.0749 -0.43458,-0.59038 -0.55469,-0.70117 -0.0205,-0.0189 -0.0329,-0.0296 -0.0391,-0.0332 v -0.002 h -0.002 -0.002 v 0.002 c 0.008,0.0215 0.0898,0.12815 0.0957,0.16406 v 0.002 0.002 0.002 0.002 0.002 h -0.002 l -0.002,0.002 h -0.002 c -10e-4,2e-5 -0.0107,8e-5 -0.0117,0 h -0.002 -0.01 l -0.002,-0.002 c -0.0854,-0.0288 -0.15748,-0.0868 -0.23829,-0.12695 -0.13598,-0.0675 -0.27493,-0.13031 -0.4121,-0.19531 -2.18956,-0.88422 -4.47603,-1.50817 -6.73243,-2.19727 -2.05528,-0.62759 -4.03675,-1.46288 -5.95117,-2.43359 -1.83916,-0.99405 -3.49637,-2.2867 -5.18945,-3.50586 -0.94417,-0.73109 -1.95605,-1.3768 -2.89453,-2.11524 -0.86568,-0.68112 -0.89132,-0.73472 -1.67774,-1.46679 -1.35212,-1.32991 -2.4494,-2.8836 -3.5957,-4.38672 -0.88395,-1.17553 -1.75667,-2.35971 -2.59766,-3.56641 -0.036,-0.0511 -0.0718,-0.10293 -0.10742,-0.15429 -2.65009,1.49479 -6.37968,0.54397 -8.9082,-3.59571 -0.49031,0.51474 -0.98964,1.02104 -1.47852,1.53711 -0.2769,0.30884 -0.15256,0.16362 -0.37695,0.43555 -0.93182,1.12922 -1.89013,1.99469 -2.83984,2.62695 0.0468,0.53875 0.0951,1.07682 0.14648,1.61524 0.39145,3.64925 0.82784,7.29907 1.58203,10.89453 2.16357,10.31457 -4.95862,14.86161 -9.76367,10 v 118.28711 c 0.12965,0.0216 0.28759,0.10696 0.46484,0.27148 0.0264,0.0245 0.0564,0.0453 0.0801,0.0723 0.12426,0.14143 0.20191,0.33722 0.28321,0.5039 0.17576,0.3601 0.11576,0.23814 0.27343,0.55274 0.0627,0.04 0.12548,0.0806 0.1875,0.12109 0.42303,0.27618 0.61354,0.40652 1.01563,0.71485 0.30001,0.23006 0.59596,0.47589 0.88086,0.7246 0.12124,0.10587 0.23962,0.21473 0.35937,0.32227 0.36823,0.33806 0.72535,0.68878 1.04883,1.07031 0.14378,0.16958 0.23029,0.28407 0.36523,0.45703 0.0396,0.0528 0.0795,0.10546 0.11915,0.15821 0.18414,0.16111 0.36712,0.32364 0.5371,0.5 0.0611,0.0634 0.13154,0.12031 0.17774,0.19531 0.0673,0.10925 0.22205,0.23918 0.16016,0.35156 -0.0223,0.0404 -0.0481,0.0774 -0.0781,0.11133 0.0283,0.0472 0.0643,0.0884 0.0996,0.13086 0.24879,0.29861 -0.057,0.55118 -0.30274,0.25 -0.0368,-0.0452 -0.073,-0.0905 -0.10546,-0.13867 -0.0895,0.0573 -0.18031,0.11403 -0.25977,0.17969 -0.11179,-0.0396 -0.22025,-0.0861 -0.33008,-0.13086 -0.19249,-0.0785 -0.3868,-0.15298 -0.57812,-0.23438 -0.45569,-0.19422 -0.91301,-0.39216 -1.32422,-0.67187 -0.18109,-0.13333 -0.22178,-0.15737 -0.39258,-0.3086 -0.29744,-0.26336 -0.5585,-0.56209 -0.80469,-0.87304 -0.27189,-0.35016 -0.53987,-0.7042 -0.79297,-1.06836 -0.14115,-0.20312 -0.2789,-0.40667 -0.41015,-0.61524 -0.0866,-0.0757 -0.15142,-0.13474 -0.27344,-0.25586 -0.0771,-0.0765 -0.15262,-0.15454 -0.22656,-0.23437 -0.0594,-0.0413 -0.11677,-0.086 -0.17188,-0.13282 v 9.52344 c 1.63615,1.3455 3.37649,2.56329 5.09961,3.79297 3.27734,2.30094 6.60854,4.52299 9.9336,6.75391 2.21305,1.52628 4.51707,2.916 6.74609,4.41797 0.3725,0.251 0.73935,0.50903 1.10938,0.76367 1.62249,1.22331 3.18656,2.5344 4.64648,3.94922 0.24141,0.23396 0.47517,0.47517 0.71289,0.71289 1.1646,1.22106 2.20196,2.55561 3.20508,3.91015 0.52388,0.74174 1.14966,1.39188 1.8164,2.00391 0.60877,0.56345 1.21205,1.1376 1.74219,1.77734 0.12465,0.15043 0.24185,0.30594 0.36328,0.45899 0.58256,0.79804 1.13439,1.61912 1.64844,2.46289 0.64171,1.14876 0.90366,2.38561 0.67188,3.69531 -0.14478,0.8181 -0.33105,1.11945 -0.66016,1.83399 -0.45069,0.72289 -0.5015,0.87416 -1.08789,1.51757 -0.68306,0.74946 -1.48304,1.36747 -2.3125,1.94336 0.0932,-0.0462 0.18637,-0.0938 0.2793,-0.14062 2.7369,-1.31922 5.6419,-2.2654 8.3164,-3.7168 1.18426,-0.64265 1.67955,-0.98535 2.64063,-1.62695 0.32447,-0.37438 0.71996,-0.78607 1.1914,-1.24024 0.30743,-0.29616 0.60106,-0.60707 0.92188,-0.88867 1.46085,-1.28223 3.10279,-2.37969 4.70703,-3.46875 0.10154,-0.0689 0.20121,-0.13713 0.29883,-0.20312 0.0261,-0.0237 0.0501,-0.0466 0.0762,-0.0703 0.96658,-0.97642 2.1327,-1.75602 3.04297,-2.78906 0.10794,-0.15562 0.0533,-0.0765 0.1582,-0.24219 2.85857,-4.51579 6.35751,-6.26619 9.33203,-6.11914 0.45713,0.0226 0.90191,0.0901 1.33008,0.19922 1.08287,-0.73375 2.14901,-1.49164 3.1875,-2.28906 0.60058,-0.46116 1.17474,-0.95524 1.76172,-1.43359 2.16562,-1.84418 3.89906,-4.11415 5.88672,-6.13477 1.82072,-1.85089 1.87407,-1.80961 3.875,-3.47852 1.94909,-1.38384 1.81818,-1.34631 3.73047,-2.50976 1.26435,-0.76924 1.31123,-0.72781 2.38672,-1.42969 0.61594,-0.40198 0.65304,-0.44784 1.18164,-0.87109 0.11069,-0.10676 0.22886,-0.20625 0.33203,-0.32031 0.0494,-0.0546 0.0804,-0.1236 0.12304,-0.1836 0.40072,-0.5631 0.75585,-1.1441 1.11329,-1.73633 2.50112,-4.14402 5.52959,-6.20513 8.27148,-6.67773 0.175,-0.16346 0.3487,-0.32673 0.52344,-0.49023 2.7956,-2.71812 5.73062,-5.28542 8.56445,-7.9629 0.89254,-0.84329 1.7744,-1.70036 2.66016,-2.55078 5.58537,-5.43109 10.74197,-11.2765 15.82226,-17.17578 2.60903,-3.08978 5.15987,-6.23049 7.57813,-9.47265 1.07089,-1.43574 1.46526,-2.02126 2.46679,-3.44922 0.81677,-1.16382 1.56456,-2.37248 2.30079,-3.58789 0.17268,-0.28509 0.34799,-0.56068 0.52539,-0.82618 -0.0999,-0.68942 -0.088,-1.62775 0.0527,-2.86328 0.0687,-0.60275 0.0978,-1.21187 0.20703,-1.80859 0.0915,-0.49944 0.57931,-2.05236 0.75977,-2.57813 0.67002,-1.95215 1.46697,-3.85066 2.25781,-5.75586 2.07022,-4.95323 4.17884,-9.89008 6.24805,-14.84374 1.3225,-3.26119 2.75667,-6.47369 4.31836,-9.62696 0.74823,-1.51132 1.60113,-2.97436 2.70117,-4.25976 0.6565,-0.76712 0.88038,-0.92746 1.61523,-1.58985 0.29094,-0.21812 0.57008,-0.45321 0.87305,-0.65429 1.44728,-0.96057 2.85172,-1.49 4.41992,-1.47071 1.5682,0.0193 3.29907,0.58784 5.40235,1.82422 3.11127,1.82893 3.00393,5.39652 2.80468,8.24219 -0.13599,0.92488 0.0283,1.8198 0.16211,2.73047 0.2124,1.39703 0.44896,2.79393 0.78125,4.16797 0.64791,2.3506 1.05694,4.75535 1.50977,7.14843 0.26251,1.2987 0.47353,2.61814 0.90625,3.875 0.12027,0.34931 0.2329,0.59742 0.37695,0.9336 0.71503,1.57248 1.22951,3.22162 1.7793,4.85547 0.13929,0.41349 0.30704,0.81583 0.49023,1.21093 1.72433,0.64834 3.44275,1.3121 5.17188,1.94727 1.74893,0.60296 3.47856,1.29872 5.29101,1.69531 0.94129,0.20597 1.20038,0.21479 2.16992,0.33789 1.6159,0.1113 3.24835,0.11111 4.86133,-0.0527 0.58259,-0.0595 1.1062,-0.15942 1.68164,-0.25977 0.76518,-0.19622 1.56416,-0.46366 2.17578,-0.98437 0.0201,-0.0247 0.0776,-0.0701 0.0918,-0.0918 v -0.002 l 0.002,-0.002 v -0.002 -0.002 -0.002 h -0.002 l -0.004,-0.002 h -0.002 c -0.001,-5e-5 -0.004,-9e-5 -0.006,0 -0.0753,0.005 -0.12956,0.0778 -0.19726,0.11133 -0.0155,0.008 -0.0444,0.0279 -0.0606,0.0312 h -0.002 -0.002 -0.002 -0.002 v -0.002 h -0.002 v -0.002 h -0.002 v -0.002 -0.002 -0.002 c 0.0113,-0.0655 0.067,-0.11397 0.0996,-0.17187 0.0403,-0.0715 0.079,-0.14324 0.11914,-0.21484 0.40645,-0.72639 0.8304,-1.39032 1.26953,-1.99219 0.49532,-3.70031 -0.13363,-6.19993 -5.33008,-3.33789 -0.0194,0.0107 -0.0936,0.0521 -0.0996,0.0527 h -0.002 -0.002 v -0.002 h -0.002 v -0.002 h -0.002 l -0.002,-0.002 v -0.002 l -0.002,-0.002 v -0.002 -0.002 -0.004 -0.002 -0.0117 -0.002 -0.008 l 0.002,-0.0117 v -0.004 c 0.0681,-0.0951 0.15065,-0.17939 0.22266,-0.27148 0.44658,-0.57164 0.3996,-0.52805 0.85546,-1.20118 1.54498,-2.44952 2.63836,-5.13613 3.65625,-7.83593 0.77293,-1.98862 1.23585,-4.06506 1.63086,-6.1543 0.21222,-1.10693 0.11184,-0.5785 0.30274,-1.58594 0.71889,-3.79388 2.20966,-6.46348 4.00195,-8.10156 -0.97727,0.0178 -1.95691,1.0608 -2.92969,3.72266 -0.0118,0.0321 -0.0387,0.10849 -0.0469,0.12695 0.13875,-0.80191 0.125,-0.34661 0.24609,-1.23828 0.17828,-1.31259 0.23571,-2.64586 0.3086,-3.9668 0.14697,-2.92022 -0.0603,-5.83411 -0.29883,-8.74219 -0.27454,-3.09388 -0.41073,-6.19557 -0.56641,-9.29687 -0.1085,-1.75153 -0.24055,-3.50214 -0.3457,-5.25391 -0.0849,-0.76569 -0.0199,-1.5473 -0.125,-2.31054 -0.0985,-0.9841 -0.43482,-1.91819 -0.73242,-2.85547 -0.46147,-1.47627 -0.98877,-2.92953 -1.51172,-4.38477 -0.14797,-0.41 -0.30829,-0.81737 -0.5,-1.20898 -0.17399,-0.35541 -0.33573,-0.70489 -0.48242,-1.05078 -3.51085,1.236 -5.79777,1.1925 -3.31446,-4.10938 0.19166,-0.40915 0.37411,-0.82153 0.57422,-1.22656 0.56085,-1.1352 1.22624,-2.23033 1.86524,-3.32422 0.35156,-1.10612 0.90645,-2.04233 1.60937,-2.78125 0.17674,-0.30779 0.47894,-0.83244 1.11328,-1.93555 0.0117,-0.0204 0.0235,-0.0384 0.0352,-0.0586 -0.69115,0.0949 -1.38473,0.17778 -2.08008,0.23828 -1.4359,0.082 -2.8809,-0.0338 -4.26367,-0.44531 -0.29721,-0.0885 -0.5859,-0.20325 -0.87891,-0.30469 -1.57762,-0.63636 -2.96921,-1.65869 -4.0625,-2.96094 -0.60086,-0.71569 -0.78979,-1.03961 -1.25976,-1.75781 -0.62995,-0.99907 -1.13351,-2.06951 -1.71485,-3.0957 -0.22735,-0.47655 -0.41687,-0.59371 -0.79687,-1.00781 -0.35521,-0.3162 -0.69805,-0.65379 -1.08985,-0.92579 -0.15779,-0.10955 -0.33171,-0.19549 -0.49609,-0.29492 -1.05631,-0.61509 -2.12604,-1.20497 -3.16602,-1.84765 -1.13122,-0.69426 -2.18954,-1.49518 -3.21289,-2.3379 -1.1389,-0.9923 -2.10482,-2.15733 -3.18359,-3.21093 -1.13103,-1.03537 -2.51716,-1.73849 -3.8457,-2.48242 -1.78673,-1.01321 -3.6009,-1.97728 -5.3418,-3.06836 -1.5848,-1.03064 -3.05317,-2.22298 -4.57031,-3.34766 -0.78001,-0.55886 -1.59121,-1.10553 -2.50195,-1.42578 -1.45448,-0.51005 -2.93255,-0.9493 -4.42579,-1.33008 -1.18441,-0.2729 -2.34632,-0.62778 -3.52148,-0.93555 -1.09276,-0.27475 -2.20743,-0.45241 -3.32031,-0.62304 -0.45111,-0.0654 -0.90404,-0.11015 -1.35742,-0.15625 -5.10515,-0.51886 -8.35028,-2.57389 -9.84961,-5.03516 -1.1706,-0.0149 -2.34057,-0.0529 -3.50977,-0.10547 -0.5897,-0.0438 -1.18065,-0.079 -1.76953,-0.13281 -2.59921,-0.2375 -5.17689,-0.66539 -7.74024,-1.15234 -0.14177,0.0674 -0.36683,0.11198 -0.69531,0.16601 -0.7174,0.0987 -1.44106,0.16137 -2.16601,0.13867 -1.05619,-0.0112 -2.11219,-0.0254 -3.16797,-0.0586 -1.23187,-0.0476 -2.46121,-0.13037 -3.68164,-0.3125 -1.98228,-0.27167 -3.96376,-0.5654 -5.92383,-0.9707 -1.02747,-0.20225 -2.05573,-0.40524 -3.08008,-0.62305 -0.064,-0.004 -0.12739,-0.0109 -0.19141,-0.0156 -1.00304,-0.0824 -1.99899,-0.2223 -2.99023,-0.39648 -1.29924,-0.23412 -2.60036,-0.48874 -3.85937,-0.89258 -0.54328,-0.19358 -1.07654,-0.41019 -1.60743,-0.63476 -0.29758,-0.0494 -0.59492,-0.10262 -0.89062,-0.16211 -1.13147,-0.25491 -2.23963,-0.58742 -3.35547,-0.90235 -1.13423,-0.29208 -2.29285,-0.47814 -3.42188,-0.79297 -1.00486,-0.28556 -1.9951,-0.6246 -3.00781,-0.88281 -1.34477,-0.37512 -2.71204,-0.72095 -3.97656,-1.32422 -0.16247,-0.0811 -0.3248,-0.16309 -0.48633,-0.24609 -2.19254,0.81714 -5.23799,0.66801 -8.81445,-1.10547 -0.99523,-0.49352 -1.97014,-1.02342 -2.91211,-1.61328 -1.12882,-0.69154 -2.27912,-1.34917 -3.38867,-2.07227 -1.32947,-0.84367 -2.61735,-1.74972 -3.875,-2.69726 -1.10417,-0.8586 -2.20718,-1.71736 -3.29883,-2.5918 -1.04975,-0.82763 -2.09713,-1.65958 -3.1582,-2.47265 -0.80009,-0.62179 -1.57892,-1.27103 -2.41602,-1.84376 -0.96922,-0.66223 -1.94303,-1.32185 -2.99023,-1.85742 -1.59711,-0.86369 -3.22022,-1.67277 -4.82813,-2.51562 -1.6083,-0.88799 -3.1654,-1.86003 -4.73828,-2.8086 -1.33759,-0.81811 -2.66765,-1.64979 -3.98633,-2.49804 -1.34405,-0.91153 -2.64141,-1.88723 -3.83789,-2.98828 -0.87042,-0.81915 -1.70698,-1.67533 -2.53516,-2.53711 -0.78377,-0.85774 -1.52726,-1.74961 -2.26562,-2.64649 -0.0849,-0.0973 -0.15925,-0.20307 -0.25195,-0.29297 -0.0707,-0.0685 -0.15046,-0.12851 -0.22266,-0.19531 -0.011,-0.0102 -0.024,-0.0249 -0.0371,-0.0352 z m -13.22656,218.74219 h 0.002 v -0.002 h -0.002 z m 13.49023,-218.72265 c 0.0621,0.0183 0.12349,0.0363 0.18555,0.0547 0.10779,0.0141 0.21551,0.043 0.32422,0.043 0.002,0 0.003,-3e-5 0.004,0 h 0.002 0.002 0.002 v -0.002 -0.002 h -0.002 c -0.0222,-0.01 -0.11725,-0.0315 -0.1543,-0.0391 -0.12078,-0.0247 -0.24134,-0.0423 -0.36328,-0.0547 z m 170.87305,62.97851 c -0.12782,-0.003 -0.25651,0.004 -0.38477,0.0234 0.11534,0.006 0.24945,-0.005 0.38477,-0.0234 z m 2.13086,0.65039 c -0.008,0.0102 -0.0187,0.0318 -0.0234,0.043 l -0.002,0.002 v 0.002 0.002 h 0.002 v -0.002 c 0.0134,-0.0124 0.0264,-0.024 0.0391,-0.0371 -0.006,-0.003 -0.0101,-0.007 -0.0156,-0.01 z m -132.95703,64.46485 v 0.002 h 0.002 v -0.002 z m 101.9414,7.01367 c -0.0319,0.008 -0.0527,0.0546 -0.0723,0.084 -0.059,0.0888 -0.11878,0.18521 -0.17774,0.28711 0.0895,-0.0922 0.15994,-0.16331 0.23047,-0.2832 0.0111,-0.0188 0.0376,-0.0521 0.043,-0.0723 v -0.002 -0.002 l 0.002,-0.002 v -0.002 l -0.002,-0.002 v -0.002 l -0.002,-0.002 h -0.002 v -0.002 h -0.002 -0.002 -0.002 -0.002 -0.002 c -8.5e-4,-4e-5 -0.005,5e-5 -0.006,0 h -0.002 z m -163.73828,77.46094 c 0.0644,0.0646 0.13052,0.12733 0.19922,0.1875 0.0426,0.0373 0.0745,0.0646 0.10352,0.0879 4e-5,-0.0113 3.5e-4,-0.0222 0.002,-0.0332 -0.0956,-0.088 -0.19545,-0.17214 -0.30469,-0.24218 z m 25.5586,50.05468 c -0.49332,0.23822 -0.98822,0.47373 -1.48047,0.71289 -1.41643,0.68817 -1.12708,0.54934 -2.51367,1.27344 -1.38847,0.71984 -2.73001,1.52544 -4.10938,2.26172 -0.74178,0.39595 -0.87712,0.45111 -1.62109,0.80664 -0.32848,0.15259 -0.6611,0.29401 -0.9961,0.43164 0.38199,-0.0518 0.7677,-0.0996 1.15821,-0.14453 0.58147,-0.0668 1.16251,-0.13381 1.74414,-0.19922 0.56347,-0.24988 1.11698,-0.52393 1.65625,-0.83008 0.84964,-0.48235 1.227,-0.76867 2.02734,-1.32031 1.36764,-1.01244 2.72732,-2.0383 4.13477,-2.99219 z m -28.70899,1.5293 v 10.58984 c 1.08865,-1.04617 2.56243,-1.96958 4.44336,-2.66601 1.07472,-0.53757 2.21898,-1.03632 3.4336,-1.49219 -0.14689,-0.0741 -0.28248,-0.1451 -0.4004,-0.20703 -0.61382,-0.32238 -1.28037,-0.71292 -1.86328,-1.08789 -0.29582,-0.19029 -0.58156,-0.39492 -0.87304,-0.5918 -1.58167,-1.10445 -2.90746,-2.51003 -4.19727,-3.93164 -0.1763,-0.20861 -0.35827,-0.41195 -0.54297,-0.61328 z" />
    </clipPath>
  </defs>
  <path
     id="rect297"
     clip-path="url(#clipPath401)"
     style="opacity:1;fill:#0088ff;fill-opacity:1;stroke:#ff7f2a;stroke-opacity:1"
     d="m 339.68164,217.36523 c -0.16345,0.34368 -0.33838,0.71052 -0.53516,1.125 -1.636,3.24373 -3.19515,6.52542 -4.80273,9.78321 -0.19082,0.40425 -0.39308,0.80336 -0.57227,1.21289 -0.60327,1.3787 -1.05754,2.84526 -1.57226,4.25586 -0.60079,1.64644 -1.20985,3.28855 -1.81445,4.93359 -0.9559,2.59995 -1.95898,5.19338 -2.64844,7.88086 -0.3181,1.23996 -0.44797,1.99196 -0.69922,3.25586 -0.66764,3.74246 -1.31852,7.48863 -1.93359,11.24023 -0.43494,2.75615 -0.88923,5.51038 -1.20508,8.28321 -0.21053,2.04152 -0.33956,4.08923 -0.44141,6.13867 -0.0829,1.59636 0.0457,3.19749 0.19141,4.78711 0.22393,1.39922 0.414,2.80175 0.70117,4.18945 0.21741,1.23712 0.60689,2.43414 0.9668,3.63477 0.65826,2.17198 1.19989,4.37533 1.72656,6.58203 0.55565,2.11484 0.97336,4.2602 1.32031,6.41797 0.2097,1.25225 0.29591,2.52504 0.55078,3.76953 0.2187,1.13684 0.44753,2.27176 0.70508,3.40039 0.16047,0.47585 0.29401,1.0064 0.44922,1.52344 h 0.002 v -0.002 c 0.0116,-0.0106 0.0235,-0.0151 0.0332,-0.0156 10e-4,5e-5 0.005,-1.6e-4 0.006,0 4.9e-4,1.3e-4 0.005,10e-4 0.006,0.002 h 0.002 0.002 l 0.002,0.002 0.002,0.002 c 0.0563,0.0517 0.0631,0.31792 0.10351,0.42969 0.13653,0.37755 0.27202,0.75496 0.41211,1.13085 0.10831,0.2294 0.48718,1.09191 0.50195,1.125 11.38777,25.56415 -14.50164,37.07118 -25.83398,11.48243 -0.34014,-0.76803 -0.68844,-1.53319 -0.99805,-2.31446 -0.39207,-1.04141 -0.77349,-2.0868 -1.13671,-3.13867 -0.39344,-1.30992 -0.79614,-2.61938 -1.11719,-3.94922 -0.33216,-1.46011 -0.6302,-2.92586 -0.91211,-4.39648 -0.2847,-1.53375 -0.50704,-3.07734 -0.70117,-4.625 -0.19889,-1.29025 -0.45722,-2.56728 -0.7793,-3.83203 v 218.7207 c 2.75112,0.28093 5.50193,0.57017 8.25391,0.82813 4.84622,0.44546 9.71576,0.55179 14.57812,0.6914 6.00266,0.16508 12.00734,0.24971 18.01172,0.32031 9.10713,-0.17024 18.15162,0.56024 27.14453,1.98829 5.90278,0.81005 11.56857,2.82349 17.41992,3.86328 6.27193,1.41745 11.6504,2.72124 18.13477,4.09961 l 2.13281,0.41992 c 20.77968,4.08857 38.21183,10.45375 52.44727,18.33789 h 56.61718 c 0.7295,-0.50253 1.55619,-1.02171 2.48633,-1.5586 0.073,-0.0421 0.14593,-0.0845 0.21875,-0.12695 1.10883,-0.96291 2.22133,-1.92235 3.41016,-2.78711 v 0.002 c 0.0261,-0.0155 0.21574,-0.16323 0.28711,-0.22266 0.70024,-0.58293 1.39675,-1.16789 2.11523,-1.72852 0.34631,-0.2643 0.69502,-0.52575 1.04492,-0.78515 0.46752,-1.15317 1.04186,-2.26809 1.76954,-3.33399 0.57722,-0.76033 1.10085,-1.56345 1.73242,-2.27929 2.44164,-2.76742 5.50571,-4.82764 8.8457,-6.34766 2.22066,-0.97501 4.48398,-1.83434 6.83594,-2.43945 1.36263,-0.42043 2.74114,-0.80272 4.13672,-1.08985 1.1042,-4.56496 4.31494,-9.25148 9.94726,-13.11328 v -297.7736 z m 182.94141,330.84766 c -0.0328,0.128 -0.0656,0.25612 -0.0957,0.38477 -0.0138,0.0592 -0.0399,0.23918 -0.0273,0.17968 0.0399,-0.18895 0.0811,-0.37669 0.12305,-0.56445 z m -6.03711,1.50195 c -0.0427,0.0347 -0.0888,0.0722 -0.13867,0.11328 -0.0611,0.0504 -0.23679,0.21066 -0.17579,0.16016 0.10683,-0.0886 0.21019,-0.18185 0.31446,-0.27344 z"
     transform="matrix(0.0851631,0,0,0.09951217,-25.477618,-14.875832)" />
  <path
     id="rect11"
     clip-path="url(#clipPath16)"
     style="display:inline;opacity:1;fill:#ff7f2a;fill-opacity:1;stroke:#ff7f2a;stroke-width:0.849394"
     d="m 503.4082,217.28125 v 339.89844 h 6.50586 c -0.3555,-2.12595 1.54805,-4.65691 6.97461,-7.78907 0.073,-0.0421 0.14593,-0.0845 0.21875,-0.12695 1.10883,-0.96291 2.22133,-1.92235 3.41016,-2.78711 v 0.002 c 0.0261,-0.0155 0.21574,-0.16323 0.28711,-0.22266 0.70024,-0.58293 1.39675,-1.16789 2.11523,-1.72852 0.34631,-0.2643 0.69502,-0.52575 1.04492,-0.78515 0.46752,-1.15317 1.04187,-2.26809 1.76954,-3.33399 0.57722,-0.76033 1.10085,-1.56345 1.73242,-2.27929 2.44164,-2.76742 5.50571,-4.82764 8.8457,-6.34766 2.22066,-0.97501 4.48398,-1.83434 6.83594,-2.43945 1.3625,-0.42039 2.74128,-0.80273 4.13672,-1.08985 1.61847,-6.69274 7.76434,-13.64585 19.43164,-17.88086 1.68661,-0.61221 3.39523,-1.16079 5.09179,-1.74609 1.98615,-0.7063 3.97439,-1.40748 5.97071,-2.08594 1.68789,-2.28431 3.93001,-4.52235 6.77929,-6.61914 -2.44708,-9.83108 6.21277,-21.05078 25.98047,-21.05078 h 10.4336 4.6582 c 0.1083,-0.22705 0.25462,-0.46203 0.44336,-0.70117 0.31205,-0.39538 0.69452,-0.72576 1.04687,-1.08399 0.10542,-0.11384 0.21345,-0.22573 0.31641,-0.34179 0.23758,-0.26782 0.49507,-0.59016 0.72656,-0.85938 0.0852,-0.0991 0.17072,-0.19702 0.25782,-0.29492 -0.0496,-0.0995 -0.0993,-0.19942 -0.15235,-0.29687 0.16148,-0.60083 0.1882,-1.25562 0.48438,-1.80274 0.14273,-0.26368 0.4835,-0.35874 0.7539,-0.48828 0.232,-0.11114 0.48748,-0.16926 0.73828,-0.22656 0.34855,-0.0797 0.70155,-0.13022 1.05664,-0.16406 0.5158,-0.46792 1.0868,-0.86761 1.63086,-1.30079 0.43223,-0.35729 0.83655,-0.74796 1.24414,-1.13281 0.34939,-0.34072 0.67463,-0.70217 0.99219,-1.07226 0.42632,-0.50249 0.7916,-1.05405 1.17383,-1.58985 0.55396,-0.78946 1.13018,-1.56259 1.70898,-2.33398 0.63485,-0.8555 1.45465,-1.53226 2.27539,-2.20117 0.15112,-0.17812 0.34442,-0.3401 0.58008,-0.47657 0.34942,-0.29486 0.68749,-0.6024 1.01563,-0.91992 -0.31703,-0.32214 -0.51105,-0.69357 -0.58203,-1.07422 -1.05734,-0.77736 -1.97172,-1.50549 -0.14063,-1.72851 0.26407,-0.0322 0.53,-0.0467 0.79492,-0.0488 0.57515,-0.51633 1.5121,-0.86288 2.8125,-0.83594 0.0462,9.6e-4 0.0925,-3e-4 0.13868,0.002 0.20709,-0.3567 0.40228,-0.72005 0.59375,-1.08593 0.38194,-0.72292 0.75171,-1.45153 1.09765,-2.19141 -1.72695,-1.39349 -0.98633,-3.73888 1.73047,-3.83789 0.0888,-0.18585 0.17797,-0.3712 0.26758,-0.55664 0.38774,-0.75884 0.75599,-1.53371 1.23047,-2.24414 0.0855,-0.12795 0.18023,-0.25168 0.26953,-0.37695 0.0156,-0.0201 0.031,-0.0408 0.0469,-0.0605 -1.32858,-1.54233 -0.52243,-3.49317 1.64453,-3.53125 0.47236,-0.008 1.01159,0.0741 1.60547,0.27148 -0.0168,-0.12458 -0.032,-0.25011 -0.0449,-0.375 -0.0972,-1.85076 -0.1115,-3.70417 -0.1582,-5.55664 -0.0136,-0.68721 -0.024,-1.37522 -0.0312,-2.0625 -1.19116,0.02 -2.39094,-1.15054 -2.37891,-3.50781 2e-5,-0.096 2.8e-4,-0.19306 0.002,-0.28906 0.003,-0.14856 0.007,-0.29694 0.0117,-0.44531 -0.11988,-0.0519 -0.23833,-0.1053 -0.35546,-0.16211 -0.0941,-0.0456 -0.18465,-0.0981 -0.27735,-0.14649 -3.06525,-1.59883 1.94771,-1.73666 3.11524,-2.67187 0.002,-0.0785 0.002,-0.16354 0.004,-0.25782 0.004,-0.19349 0.006,-0.38791 0.01,-0.58203 -0.14892,-0.15877 -0.37903,-0.33333 -0.70508,-0.52734 -0.0238,-0.0142 -0.0855,-0.0368 -0.0996,-0.0488 l -0.002,-0.002 v -0.002 h -0.002 v -0.002 h 0.002 l 0.002,-0.002 h 0.002 0.002 c 0.0449,-0.005 0.0835,0.0349 0.125,0.0527 0.2846,0.12177 0.41281,0.17649 0.68164,0.29688 0.003,-0.0929 0.006,-0.18663 0.0117,-0.2793 0.004,0.10437 0.0111,0.20238 0.0195,0.29297 0.0291,0.0131 0.0591,0.0263 0.0918,0.041 0.32129,0.14485 0.50463,0.2297 0.6836,0.31445 0.23761,-0.27978 0.45993,-0.46251 0.65625,-0.46289 0.15693,-3.1e-4 0.29684,0.11515 0.41601,0.39062 0.86788,-0.79654 1.82847,-1.93403 2.38282,-1.93164 0.006,3e-5 0.0119,-2.7e-4 0.0176,0 0.3019,-0.64486 0.69074,-1.12264 1.11329,-1.4414 -0.0366,-0.56743 -0.0638,-1.13498 -0.0801,-1.70313 -0.0711,-2.47689 1.03335,-3.8411 2.19726,-3.88477 1.02698,-0.0384 2.1013,0.95116 2.45118,3.10938 0.0772,0.47586 0.0699,0.95927 0.0898,1.43945 0.0232,0.55726 0.0328,0.61178 0.0762,1.19141 0.11049,1.20883 0.27132,2.41169 0.37695,3.62109 0.0803,0.9191 0.10737,1.44036 0.16407,2.36133 0.0395,0.80557 0.0842,1.61128 0.11523,2.41797 0.95202,0.49796 1.9027,0.99894 2.85547,1.49609 1.28899,0.65383 2.56075,1.34101 3.82617,2.03907 0.9779,0.51164 1.88049,1.14661 2.73633,1.83984 0.56197,0.48564 1.15092,0.93431 1.76758,1.34766 0.68265,0.45997 1.40312,0.85969 2.12695,1.25 0.88023,0.48813 1.80099,0.89486 2.72266,1.29687 0.87241,0.37444 1.75405,0.72586 2.63867,1.07031 0.70386,0.28072 1.41255,0.55107 2.12305,0.81446 0.0932,0.0336 0.18609,0.066 0.27929,0.0996 0.40561,0.14624 0.76063,0.31602 1.06641,0.5039 0.78577,-0.3467 1.57968,-0.67458 2.38086,-0.98828 2.74286,-1.10449 5.60845,-1.83539 8.49219,-2.45898 2.2627,-0.43082 4.51429,-0.91686 6.7832,-1.31446 2.08563,-0.33318 4.17923,-0.60234 6.26367,-0.94336 0.18189,-0.0289 0.36322,-0.0581 0.54492,-0.0879 -0.27148,-2.34071 -0.51302,-4.68606 -0.58398,-7.04297 -0.0709,-3.11144 0.0715,-6.21705 0.33398,-9.31835 0.30882,-3.07119 0.80884,-6.11527 1.27344,-9.16602 0.43946,-2.87962 0.91989,-5.75395 1.77734,-8.54492 0.38739,-1.34671 0.80716,-2.68918 1.12305,-4.05469 0.0931,-0.53792 0.1896,-1.07479 0.2793,-1.61328 0.0183,-0.10953 0.0364,-0.21861 0.0547,-0.32813 0.007,-0.04 0.0192,-0.14263 0.0234,-0.15625 l 0.002,0.002 v 0.002 0.002 c -0.005,0.30331 -0.0264,0.60707 -0.0391,0.91016 -0.19626,4.68559 0.84872,6.03957 2.55274,5.64062 -0.0994,-1.03598 -0.13433,-2.14012 -0.0977,-3.31054 0.0353,-1.12639 0.067,-2.25375 0.0566,-3.38086 -0.003,-1.21568 -0.14964,-2.42768 -0.21484,-3.64063 -0.0851,-1.05 -0.16661,-2.10281 -0.3418,-3.14257 -0.20334,-1.31459 -0.42543,-2.62448 -0.65039,-3.93555 -0.21673,-1.45316 -0.40469,-2.91044 -0.65039,-4.35938 -0.32817,-2.0089 -0.69839,-4.01177 -0.9707,-6.02929 -0.24006,-1.99435 -0.43828,-3.99656 -0.58399,-6 -0.0898,-1.44896 -0.19635,-2.89582 -0.36719,-4.33789 -0.0954,-1.22792 -0.17876,-2.4583 -0.21874,-3.68946 -0.18866,-0.34591 -0.37009,-0.70519 -0.54688,-1.07812 -1.01431,-0.92499 -1.93567,-1.94641 -2.64258,-3.13477 -0.2073,-0.3843 -0.43172,-0.75889 -0.62109,-1.15234 -0.68349,-1.42006 -1.06391,-2.96028 -1.29688,-4.51172 -0.034,-0.39717 -0.0865,-0.79315 -0.10351,-1.19141 -0.0657,-1.54007 0.14371,-3.08026 0.53125,-4.56836 0.60462,-1.92643 1.4408,-3.82504 2.89258,-5.2832 0.57257,-0.57508 1.22908,-1.05999 1.84375,-1.58984 0.4217,-0.25232 0.83032,-0.52979 1.26562,-0.75781 1.56669,-0.8207 3.29933,-1.2541 5.04883,-1.44336 0.10989,-0.0111 0.22028,-0.0232 0.33008,-0.0352 0.0396,-0.46242 0.087,-0.92395 0.14453,-1.38477 0.19179,-1.42824 0.39821,-2.85665 0.68359,-4.26953 0.27598,-1.28934 0.57811,-2.57295 0.84961,-3.86328 0.34444,-1.44256 0.69048,-2.88921 1.14063,-4.30273 0.12655,-0.37055 0.4734,-1.51503 0.5332,-1.59571 l 0.002,-0.002 v -0.002 h 0.002 0.002 l 0.002,0.002 c 0.007,0.0415 -0.0634,0.36957 -0.26953,1.19531 -1.80205,7.2176 1.02953,6.65344 5.08399,4.17383 0.0152,-0.22005 0.0313,-0.44043 0.0508,-0.66015 0.11218,-1.28968 0.20909,-2.58051 0.33203,-3.86915 0.12153,-1.10942 0.27345,-2.21591 0.28515,-3.33398 0.0636,-1.38859 0.0576,-2.78139 0.16797,-4.16797 0.11891,-1.72015 0.26835,-3.43699 0.48047,-5.14844 0.31679,-2.43665 0.75328,-4.85265 1.27539,-7.2539 0.59298,-2.84782 1.16902,-5.70054 1.81445,-8.53711 0.39447,-1.76246 0.78664,-3.5265 1.22266,-5.2793 0.18724,-0.75266 0.55765,-2.18263 0.81055,-2.92969 0.16443,-0.48578 0.36588,-0.95839 0.54883,-1.4375 1.26842,-3.3219 2.39587,-4.6026 3.43945,-4.57031 0.93441,0.0289 1.80282,1.1089 2.64648,2.7168 -0.009,-1.0642 -0.0291,-2.12799 -0.0703,-3.19141 -0.0852,-2.04717 -0.19446,-4.09468 -0.43164,-6.13086 -0.20935,-1.77355 -0.44199,-3.54489 -0.55469,-5.32812 -0.16841,-1.70426 -0.42363,-3.39842 -0.56445,-5.10547 -0.1373,-2.05767 -0.30057,-4.11266 -0.49219,-6.16602 -0.22795,-2.52753 -0.45805,-5.05669 -0.64453,-7.58789 -3.49722,-1.92061 -6.22558,-6.6399 -6.03516,-14.10547 0.007,-0.25517 0.0126,-0.51047 0.0195,-0.76562 -0.56418,-0.88729 -1.10016,-1.8658 -1.60157,-2.93945 -1.1394,-2.43976 -2.17566,-4.92733 -2.99218,-7.4961 -0.98088,-2.8867 -2.01412,-5.75295 -3.16211,-8.57617 z m 216.57813,125.24219 c -1.12705,2.41485 -1.15208,3.80658 -0.44336,4.51562 0.12179,-0.15402 0.24353,-0.30821 0.36523,-0.46289 0.0108,-1.35121 0.0217,-2.70282 0.0781,-4.05273 z m -66.63672,85.13867 c 4.1e-4,-0.0139 -5e-4,0.0271 0,0.041 h -0.002 c 8e-4,-0.0136 5e-5,-0.0274 0.002,-0.041 z m 0.0586,0.6582 c 0.0331,0.17707 0.0777,0.31711 0.13282,0.42578 0.027,-0.12775 -0.0114,-0.26812 -0.13282,-0.42578 z m 115.01758,84.85157 c -3.82638,1.27476 -8.42409,1.9821 -13.79297,1.90039 -3.21191,-0.0489 -6.37898,0.61323 -9.52929,1.15234 -2.87549,0.52968 -5.75046,1.08853 -8.59961,1.74805 -1.75376,0.40596 -2.75247,0.69086 -4.25,1.55273 -5.3266,2.92787 -10.76446,5.65788 -15.98633,8.77149 -3.00754,1.89002 -5.98919,3.82074 -8.98047,5.73632 -13.9813,8.95344 -25.7696,7.65718 -31.79688,1.6836 -3.49243,0.8359 -7.00576,1.57622 -10.54101,2.21093 -3.24754,0.58448 -6.51205,1.07219 -9.77344,1.57227 -2.76663,0.43248 -5.54275,0.77893 -8.33203,1.02344 -2.74675,0.22555 -5.50145,0.31395 -8.25586,0.37695 -4.47377,0.0906 -8.93099,-0.30035 -13.37109,-0.79883 -3.48695,-0.47393 -6.98703,-0.97994 -10.37305,-1.96875 -2.48597,-0.72596 -2.97136,-1.00589 -5.33984,-1.99414 -0.35082,-0.17341 -0.65727,-0.32446 -0.92579,-0.45703 -0.0402,0.13974 -0.0833,0.27953 -0.12695,0.41797 -0.3359,1.06572 -0.82113,2.07627 -1.23242,3.11523 -3.78636,9.56469 -7.04076,9.38814 -10.05664,5.17383 -1.38827,1.14343 -2.56049,1.96982 -4.53906,3.44922 -4.64352,3.30498 -9.43253,6.39743 -14.31055,9.3418 h 190.11328 z m -245.80273,35.04101 c -0.0328,0.128 -0.0656,0.25612 -0.0957,0.38477 -0.0138,0.0592 -0.0399,0.23918 -0.0273,0.17968 0.0399,-0.18895 0.0811,-0.37669 0.12305,-0.56445 z m -6.03711,1.50195 c -0.0427,0.0347 -0.0888,0.0722 -0.13867,0.11328 -0.0611,0.0504 -0.23679,0.21066 -0.17579,0.16016 0.10683,-0.0886 0.21019,-0.18185 0.31446,-0.27344 z"
     transform="matrix(0.0851631,0,0,0.09951217,-25.477618,-14.875832)" />
  <rect
     style="display:inline;opacity:1;fill:#0088ff;fill-opacity:1;stroke:#0088ff;stroke-width:0.0966094;stroke-opacity:1"
     id="rect306"
     width="0.81975931"
     height="3.006501"
     x="16.161757"
     y="16.541094"
     transform="matrix(0.97836168,-0.20690196,0.12556235,0.99208573,0,0)" />
  <path
     d="m 7.2723418,1.5346082 c -0.30446,0.11464 -0.95455,0.45728 -1.34068,0.69392 -0.38613,0.23674 -0.87537,0.72928 -1.145,0.97308 -0.26962,0.24371 -0.79952,0.65144 -1.15431,1.08163 -0.35487,0.43019 -0.88565,1.17848 -1.08714,1.52766 -0.20141,0.34929 -0.53628,1.067 -0.72092,1.52744 -0.18472,0.46055 -0.38832,1.27187 -0.51036,1.80306 -0.19757,0.8599898 -0.22253,1.1677898 -0.22747,2.7183798 -0.004,1.33178 0.0781,2.01307 0.19633,2.64438 0.085,0.45407 0.16321,1.18132 0.27784,1.57559 0.11472,0.39427 0.23355,1.21681 0.40294,1.63874 l 0.53485,0.88871 0.66225,-0.5862 c 0.23948,-0.23734 0.75502,-0.58762 1.0301,-0.79192 0.27508,-0.2042 0.55825,-0.39114 0.81417,-0.52339 0.25591,-0.13225 0.78833,-0.29014 1.24097,-0.43185 0.67569,-0.21166 1.00398,-0.16962 1.87801,-0.17082 0.5855,-7.9e-4 1.47713,-0.17815 2.0392102,-0.0835 0.56208,0.0947 1.34771,0.16899 1.74584,0.16959 0.55637,7.9e-4 0.92484,-0.10869 1.48122,-0.31736 0.39813,-0.14927 1.0733,-0.31716 1.37776,-0.49728 0.30445,-0.18002 0.86863,-0.53905 1.19651,-0.81689 0.32788,-0.27784 1.12651,-0.85619 1.5949,-1.3235 0.65371,-0.6521 0.70387,-0.87063 1.05534,-0.99173 0.27601,-0.0951 0.47892,-0.21199 0.67326,-0.17567 0.17731,0.0331 0.37033,0.19929 0.57617,0.30239 0.20576,0.10299 0.61599,0.23244 0.91167,0.5263 0.29561,0.29386 0.79258,0.74101 1.07992,1.00333 0.28726,0.26221 0.75894,0.66779 1.03997,0.85338 0.28104,0.18569 0.86528,0.51982 1.21658,0.65665 0.3513,0.13673 0.93682,0.43407 1.35838,0.51746 0.42156,0.0833 1.52577,0.1279 2.33116,0.18502 1.15754,0.082 1.53909,0.0796 2.0981,0.28278 0.38902,0.14141 0.85342,0.41974 1.17108,0.63757 0.31757,0.21783 0.89244,0.72975 1.19562,1.06122 0.30327,0.33148 0.65403,0.77238 0.86115,1.0944 l 0.57731,0.58543 0.5859,-0.80214 c 0.21929,-0.41108 0.55027,-1.18945 0.76011,-1.76792 0.20985,-0.57836 0.5066,-1.6916 0.65138,-2.33046 0.2497,-1.1016 0.40402,-1.23847 0.40972,-3.07865 0.005,-1.7338 -0.14874,-2.0305498 -0.32528,-2.7863398 -0.10875,-0.46522 -0.34687,-1.29618 -0.52921,-1.75105 -0.18233,-0.45487 -0.5479,-1.10989 -0.77146,-1.50336 -0.22364,-0.39348 -0.68577,-1.08902 -1.03528,-1.51693 -0.34951,-0.4279 -0.93188,-1.07489 -1.33496,-1.38995 -0.40308,-0.31505 -1.1529,-0.79806 -1.50284,-0.96823 -0.34993,-0.17027 -1.0847,-0.30034 -1.55931,-0.41339 -0.5315,-0.12658 -1.16933,-0.30708 -1.69299,-0.30708 -0.46755,0 -1.19571,0.0677 -1.56906,0.15046 -0.37327,0.0828 -0.96959,0.27118 -1.29228,0.39955 -0.32277,0.12847 -0.92191,0.43155 -1.24979,0.6259 -0.32788,0.19424 -0.80331,0.5247 -1.15461,0.8107 -0.3513,0.2859 -1.26188,1.16891 -1.97435,2.00998 -0.7904,0.93293 -1.28015,1.63079 -1.38149,1.63079 -0.10424,0 -0.30365,-0.24859 -0.73722,-0.8375 -0.38025,-0.51657 -0.99215,-1.29617 -1.35971,-1.67531 -0.36756,-0.37914 -0.94489,-0.96793 -1.2502,-1.22248 -0.3054,-0.25455 -0.96705,-0.65305 -1.40504,-0.89506 -0.85641,-0.47292 -2.10343,-1.01256 -4.1062102,-0.99182 m -0.74096,6.26273 c -0.27652,0.1032 -0.63911,0.13722 -0.89826,0.3458 -0.25915,0.20858 -0.56996,0.5857 -0.77146,0.90563 -0.20814,0.33038 -0.45938,0.89483 -0.55663,1.26273 -0.0942,0.3562498 -0.12398,0.8252998 -0.12398,1.1637398 0,0.33854 -0.15075,0.6294 -0.0807,0.94356 0.0701,0.31426 0.3299,0.93032 0.42707,1.15303 0.0973,0.22271 0.51575,0.3858 0.71043,0.63259 0.19468,0.24669 0.31901,0.5494 0.5074,0.69966 0.18846,0.15016 0.51708,0.26983 0.78824,0.38735 0.34806,0.15086 0.58349,0.25786 1.0514602,0.25786 0.3645,0 0.78832,-0.0334 1.02278,-0.11472 0.23445,-0.0814 0.5673,-0.14908 0.85533,-0.36662 0.33222,-0.25097 0.68387,-0.65281 0.92879,-1.0417 0.24102,-0.38243 0.50147,-0.7639 0.61422,-1.19788 0.14776,-0.56821 0.1146,-0.66059 0.0796,-1.40375 -0.0322,-0.68345 -0.11438,-1.1752698 -0.2784,-1.6035698 -0.12,-0.31356 -0.29797,-0.78845 -0.45322,-1.01494 -0.15525,-0.22649 -0.46234,-0.63073 -0.71706,-0.84428 -0.25464,-0.21355 -0.67115,-0.22288 -0.97178,-0.33135 -0.33963,-0.1226 -0.73902,-0.17314 -1.11715,-0.16976 -0.3490802,0.003 -0.6998102,0.0632 -0.9882502,0.17085 m 17.1213902,-0.11814 c -0.31102,0.12748 -0.74663,0.40522 -0.96805,0.61718 -0.22134,0.21196 -0.52835,0.61538 -0.68224,0.8964 -0.15389,0.28112 -0.3421,0.7552 -0.41832,1.05364 -0.078,0.3053998 -0.13839,0.8906298 -0.13814,1.3387298 2.6e-4,0.43786 0.0589,1.01622 0.1303,1.2853 0.0715,0.26899 0.22466,0.67798 0.3404,0.90895 0.11582,0.23087 0.40504,0.62404 0.64273,0.87371 0.2376,0.24978 0.65056,0.55558 0.91763,0.67967 0.37523,0.17435 0.66018,0.22649 1.25385,0.22928 0.69758,0.003 0.81995,-0.0261 1.32897,-0.31894 0.33878,-0.19494 0.71963,-0.52114 0.96226,-0.82416 0.22083,-0.27594 0.4942,-0.73818 0.60756,-1.02736 0.11326,-0.28918 0.23982,-0.81391 0.28112,-1.16608 0.0425,-0.36113 0.0436,-0.93621 0.003,-1.31874 -0.0424,-0.3958598 -0.17884,-0.9383998 -0.32754,-1.3025098 -0.15551,-0.38074 -0.42292,-0.80774 -0.68565,-1.09494 -0.23692,-0.25893 -0.64238,-0.58403 -0.90111,-0.72236 -0.32873,-0.17593 -0.6675,-0.2649 -1.12568,-0.29565 -0.53397,-0.0358 -0.76,-9.9e-4 -1.22073,0.18788 m -8.11058,10.4507298 c -0.27644,0.32948 -0.7607,0.5915 -1.01832,0.82525 -0.25762,0.23376 -0.90064,0.94235 -1.53298,1.39892 -0.63234,0.45666 -1.36509,1.11267 -1.60525,1.37678 -0.25574,0.28122 -0.61057,0.68133 -0.76309,1.04395 -0.14308,0.34053 -0.25879,1.08317 -0.31491,1.46112 -0.079,0.53279 -0.13587,0.91244 -0.0571,1.57559 0.0559,0.47039 0.25646,1.13234 0.36479,1.49815 0.10841,0.3658 0.2793,0.97751 0.44912,1.33228 0.16981,0.35486 0.39952,0.99601 0.67221,1.42471 0.27278,0.4288 0.76792,1.22595 1.08882,1.63643 0.32089,0.41049 1.0551,1.23954 1.57383,1.80179 l 1.26466,0.95598 0.54164,-0.48602 c 0.20431,-0.26122 0.70202,-0.76778 1.05987,-1.28773 0.35786,-0.51995 0.88452,-1.5523 1.13575,-2.01055 0.25115,-0.45816 0.7556,-1.33253 1.05154,-2.05111 0.29603,-0.71847 0.49276,-1.805 0.6337,-2.27928 0.14095,-0.47427 0.29704,-1.18896 0.37003,-1.60184 0.073,-0.41278 0.13268,-1.05813 0.13268,-1.38015 0,-0.32203 -0.11099,-0.774 -0.17734,-1.03144 -0.0663,-0.25744 -0.16527,-0.66785 -0.28935,-0.85791 -0.12408,-0.19007 -0.63589,-0.86512 -1.20665,-1.36487 -0.57076,-0.49985 -1.44287,-1.20265 -1.84561,-1.6833 l -0.66611,-1.05063"
     stroke="none"
     fill="#79a64a"
     fill-rule="evenodd"
     id="path3"
     style="display:inline;stroke-width:0.0920584" />
  <path
     id="path4"
     style="display:inline;stroke-width:0.0920584"
     d="m 10.362072,0.01133817 c -0.4840702,-0.0259 -1.1676702,-0.006 -1.5189702,0.0449 -0.35129,0.0506 -0.98363,0.20605 -1.40519,0.34557 -0.42156,0.13942 -1.15229,0.47263 -1.62375,0.74032003 -0.47155,0.26768 -1.18053,0.76575 -1.57552,1.10668 -0.39507,0.34103 -0.97865,0.93763 -1.29691,1.32573 -0.31834,0.38819 -0.76439,1.01918 -0.99118,1.4023 -0.22679,0.38312 -0.56563,1.05483 -0.75316,1.49269 -0.18753,0.43785 -0.43654997,1.10956 -0.55339997,1.49268 -0.11693,0.38312 -0.28348,1.07722 -0.37009,1.54244 -0.11795,0.6336898 -0.15721,1.2576298 -0.15636,2.4877998 7.7e-4,1.19743 0.0426,1.87039 0.1542,2.48547 0.0842,0.46393 0.26452,1.24947 0.40053,1.74574 0.13609,0.49637 0.45674997,1.39037 0.71256997,1.98675 l 0.46524,1.08452 -0.29724,0.56267 c -0.16351,0.30959 -0.40744,0.89428 -0.54208,1.29949 -0.13463997,0.40522 -0.30984997,1.13985 -0.38938997,1.63243 -0.10083,0.62404 -0.13081,1.16718 -0.0993,1.79122 0.0276,0.54533 0.11465,1.11135 0.22255,1.4472 0.0982,0.30531 0.32933997,0.7363 0.51779997,0.96558 0.22092,0.26858 0.44595,0.43718 0.64072,0.47988 0.17595,0.0385 0.40488,0.015 0.55323,-0.0568 0.13924,-0.0675 0.38446,-0.29241 0.54491,-0.49989 0.16045,-0.20758 0.52428,-0.90753 0.80855,-1.55566 0.28428,-0.64802 0.65166,-1.375 0.81637,-1.61532 0.15634,-0.22812 0.28673,-0.40112 0.30056,-0.3998 l 1.7e-4,2e-4 h 1.8e-4 1.7e-4 v 2e-4 l 1.7e-4,2e-4 v 2e-4 h 1.7e-4 v 2e-4 2e-4 l 1.7e-4,2e-4 v 1.9e-4 2e-4 c 0.001,0.0214 0.0223,0.50907 0.0471,1.08375 0.0248,0.57469 0.12067,1.48258 0.21291,2.01746 0.0922,0.53487 0.24657,1.20658 0.34298,1.49268 0.0965,0.2861 0.31163,0.78246 0.47821,1.10319 0.16658,0.32062 0.53461,0.92365 0.81786,1.3401 0.28317,0.41646 0.77241,1.05511 1.087,1.41903 0.31459,0.36401 0.89186,0.97356 1.28293,1.35449 0.39099,0.38103 1.0366602,0.97499 1.4348002,1.3199 0.39814,0.345 1.26042,1.04174 1.91617,1.54846 0.65576,0.50681 2.10631,1.53034 3.22339,2.27459 1.11709,0.74415 2.17906,1.39981 2.36012,1.45673 0.25404,0.0799 0.39613,0.0707 0.62308,-0.04 0.16164,-0.0789 1.01567,-0.70036 1.89788,-1.38093 0.8822,-0.68066 2.06635,-1.64089 2.6314,-2.13387 0.56506,-0.49299 1.42734,-1.29922 1.91617,-1.79181 0.48884,-0.49258 1.27309,-1.36108 1.74285,-1.92999 0.46968,-0.56891 1.09571,-1.41501 1.39106,-1.88023 0.29534,-0.46522 0.67695,-1.13693 0.8483,-1.49269 0.17126,-0.35575 0.47211,-1.11267 0.6685,-1.68198 0.32719,-0.94835 0.40375,-1.0842 0.91234,-1.62058 l 0.55506,-0.5856 0.0852,0.37686 c 0.0468,0.20719 0.14928,0.71253 0.22755,1.12301 0.0784,0.41049 0.21029,0.90308 0.29324,1.09464 0.0829,0.19156 0.23107,0.43322 0.32918,0.53701 0.10441,0.11026 0.3536,0.20829 0.59963,0.23596 0.31698,0.0355 0.51393,-0.005 0.79624,-0.16502 0.21819,-0.12339 0.48503,-0.39105 0.6379,-0.63983 0.1446,-0.23524 0.34633,-0.71612 0.44827,-1.06859 0.11437,-0.39536 0.20276,-1.00706 0.23087,-1.59627 0.0255,-0.53319 3.4e-4,-1.32461 -0.0569,-1.79122 -0.0564,-0.45985 -0.21493,-1.22177 -0.35229,-1.69346 l -0.24967,-0.85771 0.39571,-0.68473 c 0.21776,-0.37665 0.61878,-1.22229 0.89105,-1.87907 0.27235,-0.65678 0.6095,-1.60539 0.74934,-2.10802 0.13992,-0.50264 0.31617,-1.2863 0.39171,-1.74147 0.0755,-0.45516 0.15914,-1.40973 0.18596,-2.12124 0.0292,-0.7737 0.009,-1.64486 -0.0512,-2.1675 -0.055,-0.4805398 -0.19569,-1.2597598 -0.31271,-1.7315498 -0.11692,-0.47178 -0.34517,-1.19271 -0.50715,-1.6023 -0.16189,-0.40959 -0.50487,-1.11417 -0.76197,-1.56576 -0.25711,-0.45149 -0.7402,-1.16212 -1.07336,-1.57898 -0.33307,-0.41676 -0.91245,-1.028 -1.28759,-1.35838 -0.37523,-0.33028 -1.07087,-0.82097 -1.54591,-1.09055 -0.47504,-0.26948003 -1.1512,-0.58011003 -1.5025,-0.69017003 -0.3513,-0.10996 -1.00279,-0.2513 -1.44777,-0.31389 -0.4621,-0.0651 -1.1377,-0.0855 -1.57552,-0.0478 -0.42156,0.0362 -1.05389,0.13429 -1.40519,0.21788 -0.3513,0.0835 -0.92615,0.2663 -1.27745,0.40621 -0.35129,0.13982 -0.90698,0.41096003 -1.23486,0.60232003 -0.32788,0.19147 -0.93483,0.61858 -1.3488,0.94926 -0.42131,0.33645 -1.20072,1.12451 -1.77047,1.79024 l -1.01779,1.18949 -0.9007,-1.05907 c -0.49548,-0.58235 -1.22387,-1.3422 -1.61877,-1.6884 -0.39481,-0.34631 -1.05149,-0.83388 -1.45925,-1.08356 -0.40767,-0.24967 -1.07405,-0.58996003 -1.48087,-0.75645003 -0.40691,-0.16638 -1.04563,-0.37045 -1.41933,-0.45324 -0.37378,-0.0829 -1.07548,-0.17179 -1.55955,-0.19767 z m -0.11378,1.27267003 c 0.88212,0.0243 1.39165,0.0914 1.95876,0.2583 0.42155,0.12399 1.09221,0.38975 1.49035,0.59047 0.39814,0.20071 0.93466,0.52353 1.19228,0.71738 0.25762,0.19395 0.75583,0.62399 1.10712,0.95567 0.3513,0.33167 0.90699,0.933 1.23487,1.33622 0.32788,0.40322 0.77336,0.96761 0.99002,1.2542 0.21665,0.2866 0.45169,0.52108 0.52229,0.52108 0.0706,0 0.75565,-0.73406 1.52229,-1.63126 1.04546,-1.2233 1.59544,-1.78297 2.2001,-2.23864 0.44336,-0.33416 1.08798,-0.74464 1.43264,-0.91232 0.34474,-0.16768 0.91506,-0.39111 1.26746,-0.4964 0.35232,-0.10528 0.95612,-0.23706 1.34165,-0.29309 0.48186,-0.07 0.97246,-0.0692 1.56937,0.002 0.47759,0.0572 1.20275,0.2165 1.61144,0.35393 0.4087,0.13742 1.01055,0.40781 1.3375,0.60076 0.32694,0.19296 0.84204,0.55725 1.14454,0.80951 0.30259,0.25227 0.77039,0.72039 1.03976,1.04002 0.26945,0.31973 0.68413,0.88232 0.92165,1.25032 0.23744,0.36789 0.62157,1.11679 0.85346,1.66411 0.23182,0.54731 0.49992,1.35128 0.59565,1.78674 0.0957,0.43547 0.21619,1.1967398 0.2678,1.6917098 0.0534,0.51139 0.0687,1.28678 0.0358,1.79569 -0.032,0.49259 -0.12855,1.32102 -0.21474,1.84098 -0.0862,0.51995 -0.27942,1.37078 -0.42931,1.89073 -0.14997,0.51995 -0.4057,1.25883 -0.56853,1.64195 -0.16275,0.38312 -0.43627,0.97566 -0.60762,1.31678 -0.17135,0.34103 -0.3307,0.61803 -0.35412,0.61535 -0.0234,-0.003 -0.26185,-0.3358 -0.52994,-0.74032 -0.2681,-0.40442 -0.74229,-0.98089 -1.05373,-1.28102 -0.31153,-0.30023 -0.82792,-0.70647 -1.14771,-0.9028 -0.31978,-0.19644 -0.86908,-0.44301 -1.22072,-0.5481 -0.39116,-0.11693 -1.2225,-0.23163 -2.14072,-0.29562 -0.82575,-0.0574 -1.88982,-0.19696 -2.36478,-0.31 -0.47495,-0.11315 -1.14383,-0.34215 -1.48652,-0.50884 -0.34262,-0.16668 -0.9017,-0.51567 -1.24236,-0.77549 -0.34065,-0.25983 -0.94266,-0.79909 -1.33782,-1.19823 -0.39516,-0.39924 -0.91018,-0.83051 -1.14438,-0.95858 -0.29935,-0.1636 -0.57758,-0.23238 -0.93679,-0.23148 -0.31724,6.9e-4 -0.64018,0.0714 -0.85164,0.18639 -0.18735,0.1017 -0.78137,0.62319 -1.32002,1.15877 -0.53866,0.53557 -1.2588,1.18743 -1.6003,1.44895 -0.34159,0.26142 -0.93415,0.61645 -1.31687,0.78891 -0.38273,0.17245 -0.97803,0.38521 -1.32302,0.47268 -0.597,0.15136 -0.70909,0.14793 -2.33051,-0.0727 -1.2609302,-0.17146 -1.9503102,-0.21747 -2.6547002,-0.17687 -0.5424,0.0312 -1.24455,0.14483 -1.6329,0.26394 -0.37472,0.11494 -0.95693,0.36161 -1.29375,0.5481 -0.33682,0.18638 -0.83502,0.51836 -1.10712,0.73779 -0.27209,0.21942 -0.61951,0.53884 -0.77195,0.7098 -0.15253,0.17096 -0.31099,0.2865 -0.3523,0.25675 -0.0412,-0.0298 -0.23024,-0.46877 -0.42016,-0.97569 -0.18983,-0.50681 -0.44022,-1.30664 -0.55655,-1.77703 -0.11634,-0.47039 -0.2575,-1.22259 -0.31371,-1.67169 -0.0615,-0.49149 -0.0861,-1.39887 -0.0617,-2.27945 0.0289,-1.04408 0.092,-1.6906298 0.22023,-2.2588498 0.0988,-0.43785 0.28054,-1.08717 0.40386,-1.44292 0.12331,-0.35576 0.40266,-0.99884 0.62059,-1.42913 0.21802,-0.43019 0.63763,-1.11154 0.93247,-1.51406 0.29492,-0.40263 0.85061,-1.02691 1.23486,-1.38734 0.38435,-0.36044 0.96704,-0.82742 1.29492,-1.03788 0.32787,-0.21037 0.88,-0.50079 1.22704,-0.64528 0.34696,-0.14449 0.92181,-0.32692 1.27745,-0.40543 0.42897,-0.0947 1.04766,-0.13161 1.8388202,-0.10982 z m -0.0818,5.54042 c -0.2360702,0.004 -0.6358802,0.0714 -0.8885602,0.15082 -0.25276,0.0794 -0.64602,0.26297 -0.87392,0.40796 -0.2279,0.14489 -0.60757,0.50228 -0.84381,0.79415 -0.23624,0.29187 -0.52594,0.77661 -0.64372,1.07734 -0.11786,0.30063 -0.25563,0.8379998 -0.30605,1.1939498 -0.0675,0.47567 -0.0655,0.83422 0.008,1.35138 0.0547,0.38721 0.21493,0.97077 0.35578,1.29697 0.14095,0.3261 0.39118,0.76767 0.55623,0.98112 0.16504,0.21346 0.48974,0.53032 0.72155,0.70417 0.23182,0.17385 0.65483,0.40087 0.93996,0.50456 0.28512,0.10369 0.75705,0.18853 1.0489002,0.18853 0.29177,0 0.73863,-0.0711 0.99302,-0.15802 0.25446,-0.087 0.64085,-0.29028 0.85878,-0.45188 0.21785,-0.16161 0.56907,-0.51003 0.78044,-0.77414 0.21146,-0.2642 0.47884,-0.69897 0.59398,-0.96616 0.11523,-0.26729 0.25267,-0.72322 0.30539,-1.0132 0.0526,-0.29008 0.0952,-0.76027 0.0946,-1.04488 -5.1e-4,-0.2847 -0.0523,-0.74148 -0.11477,-1.01514 -0.0626,-0.2736598 -0.20036,-0.6958598 -0.30638,-0.9381698 -0.10603,-0.24221 -0.37971,-0.67141 -0.60829,-0.95372 -0.22849,-0.28232 -0.60081,-0.63131 -0.82734,-0.7753 -0.22654,-0.1441 -0.63734,-0.33049 -0.91301,-0.41438 -0.27568,-0.0839 -0.6944,-0.14955 -0.93048,-0.14596 z m -0.1987702,1.11329 c 0.0992,-0.002 0.2089102,10e-5 0.3349902,0.007 0.49497,0.0255 0.76408,0.0984 1.12542,0.30495 0.2635,0.15066 0.62656,0.47272 0.8157,0.72379 0.18745,0.24888 0.42248,0.70548 0.52229,1.01456 0.14572,0.4514898 0.17456,0.7185998 0.14688,1.3591598 -0.0278,0.64185 -0.0824,0.90015 -0.27978,1.32398 -0.13489,0.28958 -0.38957,0.6789 -0.56603,0.86509 -0.17646,0.18629 -0.48547,0.44061 -0.68663,0.5652 -0.30148,0.18668 -0.5005,0.22678 -1.13224,0.22818 -0.6815602,0.001 -0.8214202,-0.0307 -1.2623102,-0.29174 -0.27269,-0.16141 -0.60806,-0.44294 -0.74534,-0.62564 -0.1372,-0.18261 -0.35323,-0.56561 -0.48004,-0.85091 -0.19928,-0.4486 -0.23071,-0.63985 -0.23387,-1.41435 -0.003,-0.78486 0.0259,-0.96605 0.23537,-1.4643098 0.13438,-0.31973 0.40848,-0.74303 0.62641,-0.96713 0.21308,-0.21923 0.58476,-0.48999 0.82568,-0.60155 0.25466,-0.11799 0.456,-0.16878 0.7535,-0.17589 z m 9.0337702,4.8512198 c 0.0835,-2e-4 0.29028,0.0671 0.45958,0.14985 0.16931,0.0826 0.76939,0.58321 1.33351,1.11232 0.56403,0.52901 1.27674,1.14025 1.58366,1.35818 0.30702,0.21794 0.85341,0.52204 1.21424,0.67599 0.36092,0.15384 1.03474,0.36991 1.49734,0.48006 0.46261,0.11017 1.48982,0.24781 2.28261,0.30593 0.79278,0.0581 1.69977,0.16837 2.01547,0.24489 0.3157,0.0766 0.8139,0.27445 1.10712,0.43964 0.29321,0.16519 0.75334,0.50416 1.02262,0.75334 0.26929,0.24908 0.71793,0.78862 0.99701,1.19901 0.27916,0.41038 0.66207,1.11506 0.85096,1.56595 0.18881,0.45089 0.40574,1.08849 0.48187,1.41688 0.0761,0.32839 0.15779,1.14852 0.18164,1.82251 0.0279,0.79053 0.005,1.43293 -0.063,1.81008 -0.0583,0.32142 -0.17614,0.71926 -0.26181,0.88375 -0.0857,0.16459 -0.25312,0.37376 -0.37209,0.46491 -0.1349,0.10329 -0.29558,0.14239 -0.42665,0.10398 -0.15423,-0.0453 -0.23213,-0.16114 -0.29175,-0.434 -0.0447,-0.2047 -0.14488,-0.7175 -0.22255,-1.13954 -0.0777,-0.42193 -0.29475,-1.13841 -0.48254,-1.59219 -0.1877,-0.45368 -0.48184,-1.04064 -0.65352,-1.30435 -0.17169,-0.2637 -0.43964,-0.57169 -0.59531,-0.68434 -0.22884,-0.16569 -0.32161,-0.18435 -0.48503,-0.0974 -0.13499,0.0719 -0.21631,0.21643 -0.24518,0.43556 -0.0237,0.18041 -0.10073,0.75349 -0.17099,1.27344 -0.0703,0.51995 -0.22639,1.34839 -0.34698,1.84098 -0.12059,0.49258 -0.42904,1.38819 -0.68529,1.99024 -0.25626,0.60205 -0.72438,1.49766 -1.04042,1.99024 -0.31604,0.49259 -0.99641,1.40549 -1.51181,2.02854 -0.51541,0.62304 -1.47366,1.63325 -2.12941,2.24485 -0.65576,0.6116 -1.52725,1.39205 -1.9368,1.73427 -0.40955,0.34232 -0.78332,0.59457 -0.83067,0.56034 -0.0473,-0.0341 -0.58194,-0.50102 -1.18796,-1.0373 l -1.10197,-0.9751 0.30107,-0.33721 c 0.16556,-0.18559 0.54071,-0.67326 0.83367,-1.08375 0.29304,-0.41049 0.76441,-1.14937 1.0474,-1.64195 0.28308,-0.49259 0.6909,-1.25386 0.90619,-1.69171 0.21529,-0.43785 0.59724,-1.35585 0.84864,-2.04 0.25131,-0.68415 0.55774,-1.66932 0.6808,-2.18927 0.12306,-0.51995 0.2673,-1.28122 0.32053,-1.6917 0.0532,-0.41049 0.0741,-1.03062 0.0464,-1.37801 -0.0277,-0.3474 -0.14645,-0.8774 -0.26414,-1.17782 -0.11761,-0.30033 -0.33308,-0.72187 -0.47871,-0.93682 -0.14571,-0.21484 -0.71167,-0.77933 -1.25765,-1.25439 -0.54607,-0.47508 -1.21066,-1.12203 -1.47705,-1.43788 -0.26639,-0.31575 -0.66879,-0.86228 -0.89421,-1.21436 -0.22543,-0.35207 -0.45602,-0.72326 -0.51248,-0.82486 -0.0939,-0.16897 -0.14422,-0.12991 -0.59431,0.46219 -0.27048,0.35575 -0.72243,0.90804 -1.00449,1.22738 -0.28198,0.31923 -0.90502,0.87899 -1.3844,1.2439 -0.47939,0.36481 -1.18174,0.88725 -1.56072,1.16091 -0.37897,0.27366 -0.90636,0.76794 -1.17215,1.09852 -0.2658,0.33058 -0.58815,0.82799 -0.71624,1.10513 -0.128,0.27724 -0.29641,0.79052 -0.37425,1.1405 -0.0858,0.38671 -0.14138,1.02682 -0.14155,1.63146 -9e-5,0.59259 0.0579,1.27684 0.14338,1.69171 0.079,0.38312 0.29329,1.05483 0.47605,1.49268 0.18276,0.43785 0.55726,1.19988 0.83217,1.69326 0.2749,0.49338 0.85307,1.37511 1.28476,1.95934 0.43161,0.58424 1.15741,1.47172 1.61278,1.97217 0.45545,0.50035 1.32621,1.34616 1.93513,1.87985 0.60892,0.53358 1.32696,1.14578 1.59564,1.36012 0.26878,0.21445 0.47681,0.43325 0.46225,0.48629 -0.0146,0.0531 -0.4915,0.44152 -1.06005,0.86315 l -1.03377,0.76656 -1.55755,-0.99745 c -0.85666,-0.54852 -1.78749,-1.1575 -2.06853,-1.35314 -0.28104,-0.19564 -0.93254,-0.66952 -1.44777,-1.05304 -0.51524,-0.38352 -1.41584,-1.10265 -2.00134,-1.59802 -0.58549,-0.49538 -1.4508402,-1.28801 -1.9229902,-1.76149 -0.47214,-0.47338 -1.11143,-1.19979 -1.42049,-1.61396 -0.30914,-0.41417 -0.7214,-1.02711 -0.91617,-1.36227 -0.19477,-0.33515 -0.44137,-0.84116 -0.54807,-1.12437 -0.10671,-0.28321 -0.25435,-0.76134 -0.32784,-1.06237 -0.0736,-0.30102 -0.1782,-0.92795 -0.23271,-1.39317 -0.0546,-0.46522 -0.0858,-1.48988 -0.0694,-2.27692 0.0256,-1.22639 0.0103,-1.44536 -0.10612,-1.53214 -0.0748,-0.0557 -0.23566,-0.0719 -0.35762,-0.0362 -0.12204,0.0358 -0.45304,0.31518 -0.73553,0.62079 -0.28248,0.3056 -0.65035,0.77353 -0.8177,1.03982 -0.16726,0.26629 -0.51702,0.98977 -0.77711,1.60794 -0.26017,0.61817 -0.55237,1.22469 -0.6492,1.34788 -0.0968,0.1232 -0.2401,0.2239 -0.31837,0.2239 -0.0783,0 -0.20835,-0.0852 -0.28908,-0.1895 -0.0808,-0.10429 -0.20501,-0.4066 -0.27612,-0.6717 -0.0711,-0.2652 -0.12989,-0.84045 -0.13057,-1.27831 -6.8e-4,-0.4678 0.0723,-1.15711 0.17714,-1.67149 0.098,-0.48144 0.26159,-1.10837 0.36344,-1.39317 0.10186,-0.28481 0.34927,-0.81131 0.54974,-1.17005 0.20047,-0.35874 0.57263,-0.88231 0.82701,-1.16343 0.25439,-0.28112 0.72608,-0.70919 1.04791,-0.9512 0.32192,-0.24201 0.76344,-0.53119 0.98137,-0.64275 0.21793,-0.11155 0.60117,-0.27216 0.85163,-0.35684 0.25047,-0.0847 0.75845,-0.19748 1.12891,-0.25092 0.41747,-0.0601 0.9517,-0.0629 1.40519,-0.007 0.4024,0.0492 1.11494,0.15743 1.5833402,0.24042 0.46839,0.0831 1.16977,0.1513 1.55871,0.1516 0.38886,3e-4 0.9802,-0.072 1.31404,-0.16074 0.33384,-0.0888 0.86641,-0.29027 1.18347,-0.448 0.31715,-0.15762 0.81107,-0.44728 1.09764,-0.64352 0.28649,-0.19624 0.98779,-0.79255 1.55839,-1.32534 0.57067,-0.53289 1.09507,-1.05126 1.16533,-1.15197 0.0703,-0.10071 0.24272,-0.26528 0.38324,-0.36559 0.14052,-0.10041 0.32372,-0.18269 0.40718,-0.18289 z m -0.0878,4.28252 c 0.0352,-0.002 0.0639,0.0374 0.0639,0.0876 0,0.0504 0.28306,0.4222 0.62908,0.82642 0.34593,0.40432 1.02621,1.0867 1.51164,1.5164 0.48535,0.42969 1.03077,0.94211 1.21208,1.13875 0.18123,0.19674 0.42038,0.58152 0.53144,0.85518 0.16351,0.40313 0.20208,0.66037 0.20276,1.35547 5.9e-4,0.58344 -0.0653,1.16291 -0.20609,1.81124 -0.11378,0.52423 -0.34833,1.36967 -0.52112,1.87868 -0.1728,0.5089 -0.50356,1.35917 -0.73504,1.88937 -0.23147,0.5302 -0.68238,1.42581 -1.00199,1.99024 -0.3197,0.56443 -0.94703,1.52532 -1.39405,2.13543 -0.44702,0.61011 -0.84885,1.13539 -0.89288,1.16713 -0.0441,0.0318 -0.49704,-0.3812 -1.00666,-0.91777 -0.50961,-0.53657 -1.19871,-1.33033 -1.5311,-1.76401 -0.33248,-0.43377 -0.84305,-1.16631 -1.13457,-1.62795 -0.2916,-0.46154 -0.71687,-1.28998 -0.94511,-1.84098 -0.24765,-0.59777 -0.46837,-1.31091 -0.5474,-1.76867 -0.0728,-0.42183 -0.13241,-1.01305 -0.13241,-1.31368 0,-0.30062 0.0431,-0.78395 0.0958,-1.07403 0.0527,-0.28998 0.20496,-0.78115 0.33833,-1.09133 0.13345,-0.31028 0.43203,-0.78047 0.6635,-1.04488 0.23156,-0.2645 0.7596,-0.72392 1.17333,-1.02097 0.4138,-0.29694 1.0695,-0.78197 1.45708,-1.07772 0.38766,-0.29575 1.02,-0.89056 1.40519,-1.32184 0.38528,-0.43129 0.72914,-0.78594 0.76431,-0.78813 z" />
</svg>
